<?xml version="1.0" standalone="no"?>
<!DOCTYPE svg PUBLIC "-//W3C//DTD SVG 20010904//EN"
 "http://www.w3.org/TR/2001/REC-SVG-20010904/DTD/svg10.dtd">
<svg version="1.0" xmlns="http://www.w3.org/2000/svg"
 width="860.000000pt" height="983.000000pt" viewBox="0 0 860.000000 983.000000"
 preserveAspectRatio="xMidYMid meet">
<metadata>
Created by potrace 1.16, written by Peter Selinger 2001-2019
</metadata>
<g transform="translate(0.000000,983.000000) scale(0.100000,-0.100000)"
fill="#000000" stroke="none">
<path d="M1540 9398 c-55 -28 -63 -57 -26 -91 14 -13 97 -61 183 -106 292
-150 431 -256 578 -441 82 -103 100 -130 161 -245 89 -168 143 -320 183 -512
73 -350 55 -829 -45 -1193 -23 -85 -126 -398 -139 -423 -6 -12 -17 -38 -25
-57 -48 -122 -257 -542 -356 -717 -35 -62 -64 -115 -64 -117 0 -2 -27 -51 -59
-108 -219 -385 -417 -800 -504 -1058 -86 -255 -165 -616 -139 -642 25 -25 39
2 61 111 41 208 115 430 218 656 66 146 188 379 254 487 27 44 49 81 49 82 0
4 92 156 195 321 309 501 334 544 459 790 126 248 147 294 204 450 283 770
268 1532 -43 2132 -141 272 -335 467 -589 592 -144 72 -255 101 -396 107 -105
4 -119 3 -160 -18z"/>
<path d="M1085 9149 c-112 -19 -164 -34 -245 -69 -230 -98 -402 -277 -483
-506 -27 -76 -54 -263 -42 -292 4 -9 7 -31 6 -48 -1 -18 2 -35 7 -38 6 -3 8
-15 5 -26 -3 -13 1 -22 12 -26 22 -9 40 10 30 33 -4 10 -7 32 -6 49 1 18 -2
34 -7 37 -12 8 11 166 37 253 132 442 665 677 1136 499 162 -61 315 -160 429
-279 146 -152 240 -314 320 -557 55 -166 73 -266 87 -484 12 -185 6 -282 -32
-525 -30 -187 -39 -195 -111 -96 -96 133 -162 146 -254 52 -98 -101 -151 -303
-171 -649 -7 -132 -13 -143 -63 -107 -42 30 -147 70 -184 70 -98 0 -188 -144
-231 -370 -13 -67 -16 -136 -13 -329 3 -271 0 -283 -53 -218 -40 48 -83 62
-136 43 -283 -100 -437 -409 -437 -881 0 -406 120 -990 324 -1580 29 -82 78
-228 111 -323 117 -346 253 -564 439 -702 90 -66 195 -117 293 -140 140 -34
332 -20 332 24 0 18 -10 19 -160 21 -148 1 -165 4 -230 29 -242 94 -442 333
-554 665 -75 221 -104 408 -104 671 -1 438 109 870 368 1450 26 58 167 346
315 640 258 515 352 718 445 955 41 105 99 277 115 340 4 17 17 64 28 105 118
440 128 892 30 1255 -79 290 -202 509 -393 700 -170 170 -342 273 -550 329
-125 34 -298 45 -410 25z"/>
<path d="M1428 8609 c-35 -20 -21 -54 45 -115 35 -33 90 -77 123 -99 225 -151
408 -365 530 -619 52 -109 77 -137 90 -103 6 18 -48 171 -100 282 -138 294
-417 596 -600 650 -58 17 -65 18 -88 4z"/>
<path d="M873 8396 c-148 -48 -254 -180 -270 -333 -7 -68 27 -179 75 -241 30
-40 33 -47 22 -68 -7 -12 -10 -29 -7 -37 8 -22 110 -49 204 -55 101 -6 190 19
280 77 70 45 113 102 142 189 27 79 26 139 -1 226 -29 92 -109 180 -200 221
-75 34 -179 43 -245 21z"/>
<path d="M3126 7778 c-21 -50 -43 -176 -61 -348 -27 -268 -39 -344 -95 -605
-16 -77 -109 -361 -155 -473 -25 -62 -75 -172 -111 -243 -63 -127 -71 -159
-40 -159 32 0 226 359 310 575 26 66 51 129 56 140 20 47 82 248 105 345 59
244 85 409 85 548 0 191 -54 317 -94 220z"/>
<path d="M830 7511 c-47 -10 -91 -32 -104 -53 -25 -41 28 -70 167 -88 211 -28
293 -53 417 -126 79 -47 203 -168 253 -247 26 -40 43 -57 55 -55 27 6 19 39
-29 124 -61 109 -224 272 -334 334 -149 84 -330 131 -425 111z"/>
<path d="M502 6500 c-68 -16 -95 -74 -49 -105 22 -14 49 -21 231 -60 151 -33
315 -141 401 -265 28 -41 51 -51 61 -26 15 38 -111 216 -208 294 -138 113
-336 187 -436 162z"/>
<path d="M3335 5916 c-300 -44 -588 -163 -832 -344 -40 -30 -73 -61 -73 -68 0
-25 28 -27 62 -6 251 154 579 234 889 217 312 -18 382 -8 419 58 13 24 13 30
0 54 -18 33 -69 68 -119 84 -54 17 -243 19 -346 5z"/>
<path d="M2774 5485 c-11 -28 7 -35 101 -35 503 0 905 -386 904 -870 0 -87 -5
-133 -40 -366 -14 -89 -9 -114 20 -114 28 0 97 93 123 166 49 138 58 259 32
409 -71 408 -364 712 -776 805 -112 25 -355 29 -364 5z"/>
<path d="M2665 5304 c-434 -66 -796 -370 -1034 -869 -180 -377 -276 -779 -269
-1125 3 -119 5 -135 21 -138 21 -4 22 -1 36 118 68 554 329 1116 667 1440 204
195 403 287 644 297 108 5 138 2 215 -17 284 -71 471 -277 492 -540 14 -181
-81 -364 -228 -437 -174 -86 -350 -61 -479 67 -93 94 -156 277 -98 288 13 3
24 -12 43 -55 33 -73 93 -136 170 -176 53 -27 70 -31 145 -31 71 0 94 5 140
27 73 35 140 101 176 173 25 51 29 71 29 139 0 65 -5 90 -26 135 -52 110 -139
181 -255 205 -61 13 -77 12 -139 -2 -96 -21 -160 -53 -227 -113 -114 -102
-163 -222 -156 -385 4 -90 8 -108 41 -176 46 -96 99 -161 178 -215 272 -190
645 -99 832 202 86 139 126 337 97 486 -38 193 -115 334 -251 464 -122 116
-236 177 -409 221 -55 13 -299 25 -355 17z"/>
<path d="M2155 3915 c-73 -15 -163 -47 -202 -71 -120 -74 -168 -112 -240 -187
-83 -87 -97 -112 -67 -124 12 -4 27 7 51 35 82 99 249 204 384 241 92 26 256
29 342 6 240 -62 403 -261 466 -567 15 -71 42 -108 67 -92 26 15 42 71 43 145
2 155 -49 277 -167 401 -113 118 -242 192 -379 218 -75 13 -223 11 -298 -5z"/>
<path d="M1845 3271 c-80 -23 -122 -46 -168 -90 -73 -69 -88 -133 -40 -171 36
-28 65 -23 220 34 67 24 147 46 183 50 290 31 548 -178 583 -472 7 -58 7 -108
-1 -165 -6 -46 -7 -86 -2 -91 46 -48 96 192 71 340 -20 115 -44 177 -109 276
-89 137 -242 244 -412 288 -96 25 -241 25 -325 1z"/>
<path d="M652 3163 c-86 -73 -116 -340 -63 -553 95 -381 390 -753 739 -934
204 -105 340 -139 562 -139 138 0 166 3 255 27 239 64 422 182 564 360 112
140 189 335 194 485 2 80 1 86 -18 86 -17 0 -21 -9 -26 -55 -16 -150 -97 -315
-219 -443 -127 -134 -254 -212 -425 -259 -105 -29 -330 -31 -445 -4 -225 52
-438 188 -586 373 -146 182 -209 316 -282 593 -54 203 -73 274 -87 321 -38
130 -107 190 -163 142z"/>
<path d="M6705 2940 c-235 -26 -443 -87 -670 -196 -158 -76 -229 -118 -233
-137 -5 -24 25 -33 47 -13 10 9 21 16 25 16 4 0 38 14 74 31 209 98 419 158
642 184 149 18 229 18 373 0 172 -21 315 -63 454 -134 187 -94 389 -273 499
-441 63 -96 171 -305 214 -415 33 -83 85 -178 103 -189 47 -30 74 75 52 207
-27 167 -81 304 -178 447 -214 318 -560 544 -947 620 -108 21 -351 32 -455 20z"/>
<path d="M3547 2684 c-97 -21 -119 -31 -115 -52 3 -12 12 -16 33 -15 106 7
197 3 244 -11 141 -42 251 -145 302 -282 55 -148 135 -206 188 -138 63 80 -21
275 -167 385 -150 113 -309 151 -485 113z"/>
<path d="M6605 2694 c-222 -30 -368 -72 -598 -175 -93 -42 -323 -169 -397
-220 -111 -76 -575 -378 -655 -426 -362 -220 -691 -330 -960 -321 -100 3 -100
3 -100 38 0 31 -3 35 -25 35 -21 0 -26 -6 -30 -35 -4 -27 -10 -35 -25 -35 -14
0 -21 8 -25 30 -7 40 -55 48 -81 14 -17 -22 -20 -23 -66 -11 -26 7 -93 35
-149 62 -268 134 -403 371 -350 619 9 41 14 77 11 79 -3 3 3 10 12 17 21 15
10 48 -14 43 -10 -2 -18 -12 -18 -23 0 -11 -5 -24 -11 -30 -26 -22 -48 -120
-48 -210 1 -168 71 -316 211 -445 266 -245 688 -319 1133 -199 232 62 519 199
825 393 374 237 560 347 710 421 199 99 294 135 465 178 120 30 134 31 325 31
196 -1 202 -1 303 -33 114 -35 240 -94 317 -149 271 -192 422 -517 385 -828
-26 -217 -109 -385 -264 -531 -68 -65 -106 -91 -188 -132 -143 -70 -231 -91
-385 -91 -150 0 -225 16 -348 75 -194 93 -311 231 -366 431 -20 73 -22 161 -7
309 2 24 -1 30 -16 30 -33 0 -49 -65 -49 -205 0 -107 3 -136 25 -202 41 -123
91 -203 192 -303 101 -100 181 -149 326 -200 78 -27 98 -29 250 -33 155 -3
171 -2 260 23 120 34 241 91 327 156 96 72 128 103 196 194 114 153 178 318
195 506 27 302 -82 593 -308 820 -162 161 -351 263 -585 315 -67 15 -334 27
-400 18z"/>
<path d="M4597 2643 c-21 -24 -36 -113 -43 -253 -9 -183 -44 -298 -132 -427
-81 -119 -257 -255 -380 -293 -43 -13 -57 -22 -57 -36 0 -16 7 -19 45 -16 129
8 339 121 467 250 223 227 325 628 195 765 -30 31 -71 36 -95 10z"/>
<path d="M5077 2556 c-33 -31 -57 -88 -57 -136 0 -61 -45 -221 -85 -301 -20
-41 -62 -107 -92 -147 -53 -69 -62 -102 -30 -102 19 0 144 108 198 171 113
132 215 345 206 432 -8 91 -84 135 -140 83z"/>
<path d="M6517 1940 c-38 -11 -85 -29 -106 -39 -53 -28 -151 -109 -151 -127 0
-29 29 -24 85 15 84 59 142 76 260 75 140 -1 216 -29 313 -118 79 -73 123
-173 153 -355 27 -156 105 -197 159 -84 96 199 -100 527 -373 623 -91 32 -249
37 -340 10z"/>
<path d="M2945 1908 c-13 -37 -25 -155 -25 -249 0 -137 27 -284 79 -432 33
-94 128 -267 184 -336 114 -140 246 -149 314 -21 18 34 23 54 18 80 -11 56
-42 107 -92 147 -90 73 -136 118 -188 183 -131 165 -193 313 -238 565 -9 53
-16 71 -30 73 -9 2 -19 -2 -22 -10z"/>
<path d="M2697 1705 c-59 -68 -187 -168 -292 -228 -114 -66 -264 -113 -405
-127 -143 -15 -295 3 -428 51 -246 88 -338 89 -407 7 -53 -63 -12 -159 97
-228 74 -47 128 -64 266 -85 127 -19 200 -19 327 0 265 39 430 112 634 279
122 100 302 332 287 371 -10 27 -31 16 -79 -40z"/>
<path d="M5125 1653 c-122 -92 -340 -207 -493 -258 -74 -26 -191 -55 -281 -72
-123 -22 -429 -22 -536 1 -209 44 -396 137 -522 259 -51 49 -83 58 -83 22 0
-23 184 -209 258 -261 153 -107 313 -168 523 -198 134 -20 173 -20 312 0 192
28 379 101 562 219 161 104 364 288 352 319 -10 24 -27 19 -92 -31z"/>
</g>
</svg>
