<?xml version="1.0" standalone="no"?>
<!DOCTYPE svg PUBLIC "-//W3C//DTD SVG 20010904//EN"
 "http://www.w3.org/TR/2001/REC-SVG-20010904/DTD/svg10.dtd">
<svg version="1.0" xmlns="http://www.w3.org/2000/svg"
 width="860.000000pt" height="983.000000pt" viewBox="0 0 860.000000 983.000000"
 preserveAspectRatio="xMidYMid meet">
<metadata>
Created by potrace 1.16, written by Peter Selinger 2001-2019
</metadata>
<g transform="translate(0.000000,983.000000) scale(0.100000,-0.100000)"
fill="#000000" stroke="none">
<path d="M1568 9407 c-87 -25 -100 -56 -44 -105 19 -16 99 -62 177 -102 173
-88 276 -153 387 -245 143 -119 294 -315 375 -487 110 -231 166 -439 193 -708
17 -183 17 -297 0 -480 -17 -174 -52 -377 -80 -470 -7 -25 -19 -65 -26 -90
-59 -207 -170 -482 -298 -735 -73 -146 -270 -510 -331 -614 -17 -29 -31 -54
-31 -56 0 -2 -36 -71 -81 -152 -105 -191 -166 -314 -240 -480 -119 -269 -166
-405 -239 -693 -12 -48 -39 -216 -42 -265 -3 -34 0 -40 17 -40 16 0 22 10 29
50 4 28 26 118 47 200 61 238 129 414 264 685 102 203 197 366 424 734 184
297 311 506 311 511 0 2 23 43 51 92 125 216 257 506 333 733 77 233 120 426
151 685 13 107 16 186 12 335 -8 274 -47 504 -127 740 -94 277 -255 532 -428
676 -214 179 -442 279 -660 289 -64 3 -113 0 -144 -8z"/>
<path d="M1065 9145 c-102 -17 -181 -42 -260 -82 -162 -81 -269 -174 -359
-312 -73 -112 -108 -209 -126 -355 -9 -69 -10 -100 -2 -108 24 -24 38 1 49 83
15 110 53 229 100 309 53 91 190 225 285 278 100 57 187 85 327 107 97 16 127
17 210 7 53 -6 131 -21 175 -32 160 -42 379 -174 502 -302 64 -66 142 -169
188 -248 20 -34 36 -63 36 -65 0 -3 11 -28 23 -57 68 -152 121 -326 144 -473
23 -151 23 -456 0 -625 -27 -185 -40 -242 -61 -254 -15 -9 -21 -7 -34 14 -9
14 -44 54 -78 90 -57 58 -66 65 -103 65 -29 0 -49 -8 -76 -30 -21 -17 -50 -48
-66 -70 -29 -41 -70 -144 -89 -225 -21 -95 -42 -280 -44 -389 -1 -79 -5 -116
-13 -118 -7 -3 -50 14 -97 37 -46 23 -104 45 -129 47 -42 5 -48 3 -91 -37 -25
-23 -55 -58 -67 -76 -32 -52 -58 -129 -80 -239 -18 -88 -20 -130 -17 -345 3
-223 1 -245 -14 -248 -9 -2 -22 6 -28 18 -16 30 -69 60 -107 60 -40 0 -123
-37 -187 -83 -59 -43 -125 -122 -166 -198 -45 -84 -89 -229 -105 -347 -26
-187 -15 -515 25 -757 22 -129 91 -449 121 -560 56 -204 162 -538 228 -712 16
-43 39 -112 52 -153 57 -188 143 -359 253 -503 65 -86 121 -139 209 -199 168
-115 378 -163 542 -124 39 9 50 15 50 31 0 18 -7 19 -141 16 -130 -2 -147 -1
-220 24 -43 14 -110 45 -147 67 -130 78 -275 245 -360 414 -55 110 -111 277
-143 429 -20 98 -44 331 -44 434 1 105 23 334 45 458 13 77 48 222 85 358 18
68 104 306 141 392 21 51 39 95 39 98 0 19 210 454 370 770 104 204 226 449
270 545 193 414 300 718 364 1035 33 161 44 243 56 413 15 206 -7 462 -56 651
-52 201 -153 423 -258 566 -75 103 -210 236 -306 304 -92 65 -219 130 -325
165 -156 53 -335 68 -490 41z"/>
<path d="M1433 8610 c-58 -24 -2 -95 173 -220 218 -156 391 -355 510 -587 44
-87 68 -111 80 -79 7 17 -29 121 -77 223 -121 258 -353 531 -529 622 -84 44
-125 54 -157 41z"/>
<path d="M861 8390 c-70 -26 -123 -62 -172 -120 -57 -65 -82 -138 -81 -230 0
-59 6 -89 27 -135 14 -33 40 -77 57 -98 27 -34 29 -41 18 -62 -7 -13 -9 -28
-6 -34 15 -23 121 -45 216 -45 135 1 215 30 303 112 99 93 139 232 103 353
-23 76 -51 122 -105 172 -67 63 -143 96 -234 102 -57 5 -83 1 -126 -15z"/>
<path d="M3132 7788 c-5 -7 -15 -32 -21 -54 -14 -53 -39 -236 -51 -374 -15
-168 -46 -348 -91 -537 -16 -68 -34 -133 -39 -145 -5 -13 -21 -61 -35 -108
-39 -126 -108 -297 -186 -458 -38 -79 -67 -147 -64 -153 15 -23 37 -3 83 74
75 123 196 366 248 496 103 257 192 579 230 830 25 168 15 360 -22 419 -16 25
-36 28 -52 10z"/>
<path d="M770 7488 c-45 -31 -57 -52 -41 -72 14 -17 113 -41 211 -51 87 -9
184 -32 245 -58 147 -61 290 -176 370 -298 32 -48 51 -69 63 -67 10 2 17 13
16 25 0 12 -23 59 -50 105 -65 111 -210 256 -320 321 -44 26 -124 63 -177 82
-85 30 -110 35 -191 35 -80 0 -98 -3 -126 -22z"/>
<path d="M475 6490 c-30 -12 -47 -36 -43 -62 4 -32 57 -56 164 -73 122 -20
179 -38 265 -85 76 -42 208 -161 235 -212 16 -30 41 -37 50 -13 7 18 -44 111
-104 188 -46 58 -150 143 -232 190 -25 14 -76 37 -114 51 -49 19 -87 26 -135
25 -36 0 -75 -4 -86 -9z"/>
<path d="M3315 5910 c-198 -32 -356 -82 -534 -171 -136 -68 -295 -170 -315
-202 -8 -12 -7 -20 1 -28 9 -9 37 1 115 40 125 61 277 114 413 144 90 19 132
21 415 22 284 0 318 2 343 18 37 24 60 62 52 86 -10 34 -62 69 -132 91 -81 25
-203 25 -358 0z"/>
<path d="M2904 5487 c-9 -25 4 -37 42 -37 60 0 186 -30 279 -67 106 -42 207
-106 289 -183 78 -73 126 -139 179 -246 72 -145 82 -193 82 -389 -1 -125 -5
-192 -19 -253 -10 -46 -18 -111 -19 -145 -2 -52 1 -62 16 -65 25 -5 75 52 108
123 64 136 82 283 55 436 -21 117 -49 204 -93 293 -47 95 -109 179 -195 262
-91 88 -152 131 -261 183 -110 53 -247 89 -364 97 -79 6 -93 5 -99 -9z"/>
<path d="M2645 5301 c-76 -13 -131 -29 -231 -67 -197 -75 -388 -220 -540 -409
-87 -109 -194 -281 -251 -403 -119 -259 -182 -460 -228 -736 -20 -117 -27
-196 -28 -318 -2 -148 0 -163 16 -166 9 -2 19 2 21 10 2 7 13 76 25 153 24
151 74 355 117 475 33 94 104 261 142 337 102 201 252 415 380 541 117 116
288 225 417 267 113 37 195 48 323 43 95 -4 133 -11 203 -35 160 -55 295 -168
364 -304 66 -129 81 -256 46 -381 -21 -78 -70 -163 -121 -212 -52 -51 -142
-95 -220 -108 -202 -35 -398 88 -455 284 -21 73 -17 123 9 123 13 0 24 -15 38
-52 28 -75 103 -153 178 -187 47 -21 79 -28 133 -29 101 -2 164 22 236 89 40
36 67 73 87 116 24 54 28 74 27 139 -1 66 -7 87 -37 146 -19 38 -51 84 -71
101 -88 78 -198 106 -317 82 -85 -18 -164 -59 -232 -121 -42 -39 -67 -73 -99
-138 -42 -86 -42 -86 -42 -201 0 -86 5 -127 18 -165 51 -138 142 -238 277
-303 107 -50 200 -66 302 -52 86 12 125 24 193 58 180 90 303 260 350 480 19
92 19 171 0 261 -37 177 -103 299 -230 426 -54 54 -118 107 -160 131 -81 47
-186 91 -265 110 -67 17 -306 26 -375 15z"/>
<path d="M2160 3916 c-165 -38 -287 -106 -422 -234 -32 -30 -58 -61 -58 -69 0
-33 32 -21 100 35 86 73 199 133 300 161 55 15 104 21 185 21 70 0 132 -6 166
-15 88 -25 178 -76 248 -141 47 -44 78 -84 108 -140 42 -81 103 -248 103 -287
1 -34 33 -91 53 -95 13 -3 23 9 38 44 19 41 21 60 16 138 -9 153 -57 255 -176
379 -81 83 -180 147 -286 183 -66 23 -101 28 -200 30 -73 2 -142 -2 -175 -10z"/>
<path d="M1842 3270 c-81 -24 -139 -58 -185 -109 -62 -68 -64 -124 -6 -155 36
-20 36 -20 140 16 57 20 124 44 149 54 34 13 73 17 160 17 124 -1 172 -13 268
-69 60 -35 160 -137 191 -194 55 -104 64 -147 65 -295 1 -131 2 -140 20 -140
29 0 48 79 49 205 2 126 -15 199 -75 319 -33 65 -61 103 -124 165 -62 62 -101
91 -167 124 -47 23 -118 51 -159 62 -96 26 -239 26 -326 0z"/>
<path d="M652 3155 c-39 -33 -60 -79 -77 -171 -18 -90 -19 -165 -4 -271 19
-141 42 -208 123 -372 206 -414 547 -690 969 -786 56 -13 119 -17 230 -17 129
0 167 4 250 26 54 14 133 40 175 59 153 66 305 186 400 315 70 95 109 168 143
268 31 91 55 226 44 245 -4 5 -14 9 -22 7 -10 -2 -23 -35 -39 -96 -25 -100
-84 -223 -152 -314 -46 -62 -140 -146 -226 -203 -76 -49 -199 -97 -304 -118
-103 -21 -244 -22 -353 -2 -95 18 -236 69 -321 118 -189 107 -381 321 -478
532 -50 111 -79 203 -155 501 -19 72 -43 156 -55 187 -23 62 -70 117 -100 117
-10 0 -32 -11 -48 -25z"/>
<path d="M6726 2939 c-198 -17 -403 -70 -602 -154 -146 -63 -274 -133 -274
-151 0 -26 27 -26 76 -1 118 59 364 144 484 167 93 18 291 40 365 40 68 0 268
-21 330 -35 37 -8 153 -43 180 -55 93 -38 211 -100 283 -147 47 -32 131 -103
186 -158 139 -139 251 -314 350 -547 25 -58 61 -138 81 -178 32 -64 38 -71 63
-68 23 3 29 10 40 53 10 42 10 65 -3 145 -20 123 -46 204 -99 315 -73 150
-202 309 -352 434 -187 156 -440 277 -669 320 -77 14 -255 31 -309 30 -22 -1
-81 -5 -130 -10z"/>
<path d="M3580 2690 c-25 -5 -67 -15 -95 -23 -38 -10 -50 -18 -50 -33 0 -14 6
-18 25 -16 14 1 63 3 110 4 66 2 100 -3 155 -21 39 -12 98 -43 132 -67 69 -49
132 -134 159 -216 18 -56 52 -115 76 -136 8 -6 28 -15 44 -18 21 -4 37 0 53
14 19 14 25 31 29 76 4 49 0 65 -28 122 -18 38 -59 95 -95 132 -108 115 -241
178 -388 186 -45 3 -102 1 -127 -4z"/>
<path d="M6575 2690 c-94 -11 -269 -55 -385 -96 -128 -47 -353 -157 -497 -245
-65 -40 -231 -148 -369 -239 -375 -250 -549 -352 -738 -430 -217 -90 -359
-123 -576 -134 -58 -3 -132 -2 -165 2 -57 7 -60 9 -65 37 -4 22 -11 31 -29 33
-17 3 -30 -4 -42 -19 -17 -22 -20 -23 -66 -11 -26 7 -95 35 -153 64 -91 44
-117 63 -190 137 -104 104 -145 180 -162 299 -9 63 -9 96 1 154 19 109 19 113
-3 113 -29 0 -48 -66 -53 -190 -4 -91 -1 -121 15 -172 32 -100 89 -191 172
-273 157 -156 358 -242 627 -270 160 -16 335 2 543 57 100 26 273 96 415 167
152 76 257 138 585 345 118 74 265 164 325 198 309 178 583 280 825 305 114
11 331 5 395 -12 186 -50 304 -106 428 -204 86 -66 179 -176 236 -278 48 -84
90 -217 101 -320 20 -176 -9 -335 -92 -500 -44 -89 -64 -116 -147 -199 -111
-110 -194 -163 -332 -211 -86 -29 -107 -32 -244 -36 -130 -3 -161 -1 -229 18
-90 24 -198 75 -268 127 -121 88 -221 251 -252 408 -13 66 -14 95 -5 165 16
127 16 125 -5 125 -29 0 -48 -79 -49 -205 -1 -81 4 -123 20 -181 35 -122 112
-247 204 -335 56 -53 150 -117 221 -149 31 -14 93 -36 138 -50 73 -22 102 -25
234 -25 129 0 163 4 231 24 159 47 261 100 392 204 58 46 146 152 194 234 116
195 167 458 129 668 -17 97 -54 209 -96 292 -149 293 -429 508 -769 588 -64
16 -132 23 -235 25 -80 2 -176 0 -215 -5z"/>
<path d="M4595 2637 c-22 -33 -35 -117 -35 -219 0 -228 -86 -428 -251 -583
-85 -79 -160 -127 -252 -160 -46 -17 -62 -28 -62 -41 0 -16 7 -18 35 -16 47 3
152 38 225 75 137 68 263 181 352 319 114 175 170 403 130 536 -7 24 -25 59
-41 78 -19 25 -35 34 -56 34 -20 0 -35 -8 -45 -23z"/>
<path d="M5089 2565 c-36 -20 -61 -76 -69 -160 -15 -147 -79 -305 -176 -434
-30 -40 -54 -77 -54 -82 0 -5 7 -12 14 -15 9 -3 44 18 86 52 69 56 158 156
211 239 37 58 87 169 105 234 13 45 14 65 5 98 -12 43 -51 83 -80 83 -9 -1
-28 -7 -42 -15z"/>
<path d="M6521 1940 c-40 -12 -90 -29 -110 -40 -55 -29 -151 -108 -151 -125 0
-30 28 -26 77 9 81 58 138 78 239 83 103 6 176 -10 260 -58 102 -57 189 -181
213 -299 37 -189 43 -211 68 -240 13 -17 34 -30 44 -30 32 0 66 46 84 115 16
57 16 72 5 126 -27 124 -123 279 -217 351 -117 88 -198 118 -338 124 -80 3
-115 0 -174 -16z"/>
<path d="M2945 1898 c-14 -43 -25 -146 -25 -239 0 -113 22 -248 60 -374 41
-132 157 -348 234 -433 29 -33 109 -72 147 -72 66 0 122 45 147 119 15 43 2
96 -36 143 -15 19 -54 58 -87 85 -170 141 -290 325 -348 534 -15 52 -31 124
-36 161 -5 37 -12 72 -16 78 -9 14 -35 13 -40 -2z"/>
<path d="M2670 1681 c-98 -101 -192 -170 -317 -232 -117 -58 -249 -94 -378
-104 -148 -11 -337 19 -460 74 -67 29 -192 54 -242 46 -49 -7 -102 -41 -121
-75 -17 -34 -8 -85 24 -131 31 -45 129 -111 199 -132 28 -9 100 -24 160 -33
79 -12 138 -15 210 -10 104 7 286 42 365 70 133 49 282 138 409 245 59 50 194
213 237 286 26 45 27 76 2 74 -7 0 -47 -35 -88 -78z"/>
<path d="M5174 1689 c-14 -24 -224 -153 -339 -209 -238 -116 -443 -167 -710
-177 -225 -8 -396 24 -573 108 -114 53 -182 99 -254 167 -30 29 -52 43 -62 39
-9 -4 -16 -13 -16 -20 0 -21 153 -180 228 -237 37 -28 112 -72 167 -99 172
-84 343 -125 530 -125 132 0 246 19 372 60 110 37 234 96 328 157 173 111 384
300 372 331 -7 18 -33 21 -43 5z"/>
</g>
</svg>
