<?xml version="1.0" encoding="UTF-8"?>
<!-- Generator: visioncortex VTracer 0.6.5 -->
<svg version="1.1" xmlns="http://www.w3.org/2000/svg" width="1344" height="768">
<path d="M0 0 C4.254 1.924 5.014 5.984 6.625 10.188 C7.805 13.64 8.857 17.121 9.875 20.625 C10.143 21.522 10.411 22.418 10.688 23.342 C12.625 29.901 12.625 29.901 12.625 32.188 C13.68 32.182 14.735 32.177 15.822 32.172 C19.723 32.154 23.623 32.142 27.524 32.133 C29.214 32.128 30.905 32.121 32.596 32.112 C35.021 32.1 37.446 32.094 39.871 32.09 C40.251 32.087 40.251 32.087 42.175 32.074 C43.992 32.074 45.809 32.126 47.625 32.188 C48.625 33.188 48.625 33.188 48.964 35.505 C48.625 38.187 48.625 38.187 46.777 40.192 C45.929 40.824 45.081 41.455 44.207 42.105 C43.282 42.802 42.357 43.499 41.404 44.217 C40.425 44.929 39.446 45.641 38.438 46.375 C37.478 47.099 36.518 47.823 35.529 48.568 C31.329 51.693 27.585 54.415 22.625 56.188 C24.03 64.025 26.146 71.47 28.59 79.039 C30.003 83.562 30.986 87.385 30.625 92.188 C28.436 92.896 28.436 92.896 25.625 93.188 C23.177 91.864 23.177 91.864 20.648 89.855 C19.731 89.139 18.813 88.423 17.867 87.686 C16.921 86.923 15.975 86.161 15 85.375 C13.112 83.889 11.224 82.403 9.336 80.918 C8.504 80.252 7.671 79.586 6.814 78.899 C2.028 75.157 2.028 75.157 -0.781 75.372 C-3.646 76.273 -5.486 77.435 -7.879 79.242 C-8.29 79.55 -8.29 79.55 -10.373 81.105 C-11.219 81.751 -12.066 82.397 -12.938 83.062 C-13.788 83.701 -14.638 84.339 -15.514 84.996 C-21.865 89.768 -21.865 89.768 -24.476 91.915 C-26.375 93.188 -26.375 93.188 -29.125 92.875 C-29.867 92.648 -30.61 92.421 -31.375 92.188 C-30.956 84.455 -29.226 77.544 -26.875 70.188 C-26.554 69.152 -26.233 68.117 -25.902 67.051 C-23.563 59.564 -23.563 59.564 -22.375 57.188 C-22.662 57.052 -22.662 57.052 -24.115 56.369 C-26.417 55.166 -28.426 53.813 -30.527 52.289 C-31.304 51.727 -32.081 51.165 -32.881 50.586 C-33.683 50.001 -34.486 49.415 -35.312 48.812 C-35.712 48.524 -35.712 48.524 -37.732 47.062 C-49.188 38.748 -49.188 38.748 -50.375 35.188 C-49.715 34.197 -49.055 33.208 -48.375 32.188 C-45.68 31.921 -43.217 31.839 -40.523 31.895 C-39.749 31.899 -38.975 31.903 -38.178 31.907 C-35.702 31.924 -33.226 31.962 -30.75 32 C-29.073 32.015 -27.396 32.029 -25.719 32.041 C-21.604 32.074 -17.49 32.126 -13.375 32.188 C-13.194 31.433 -13.013 30.678 -12.826 29.901 C-11.229 23.361 -9.459 16.943 -7.312 10.562 C-7.057 9.775 -6.801 8.987 -6.537 8.176 C-3.913 0.309 -3.913 0.309 0 0 Z M-1.375 13.188 C-2.523 16.603 -3.668 20.02 -4.812 23.438 C-5.138 24.406 -5.463 25.374 -5.799 26.371 C-6.111 27.306 -6.424 28.24 -6.746 29.203 C-7.034 30.062 -7.322 30.921 -7.619 31.806 C-8.286 33.909 -8.84 36.047 -9.375 38.188 C-18.615 38.188 -27.855 38.188 -37.375 38.188 C-31.75 43.813 -31.75 43.813 -28.387 46.301 C-28.034 46.563 -28.034 46.563 -26.248 47.893 C-25.527 48.423 -24.806 48.953 -24.062 49.5 C-23.322 50.05 -22.581 50.6 -21.818 51.166 C-20.007 52.51 -18.192 53.851 -16.375 55.188 C-18.607 64.217 -20.87 73.229 -23.375 82.188 C-20.35 80.787 -17.849 79.126 -15.223 77.078 C-14.446 76.489 -13.669 75.9 -12.869 75.293 C-11.243 74.052 -9.626 72.799 -8.018 71.535 C-7.629 71.243 -7.629 71.243 -5.66 69.766 C-4.958 69.223 -4.255 68.681 -3.531 68.122 C-1.375 67.188 -1.375 67.188 1.15 67.85 C3.458 69.097 5.45 70.387 7.508 72.008 C8.2 72.543 8.892 73.078 9.605 73.629 C11.044 74.758 12.481 75.888 13.918 77.02 C14.608 77.552 15.297 78.084 16.008 78.633 C16.319 78.878 16.319 78.878 17.895 80.118 C19.625 81.188 19.625 81.188 22.625 81.188 C22.408 80.512 22.19 79.836 21.967 79.14 C20.988 76.076 20.025 73.007 19.062 69.938 C18.891 69.406 18.891 69.406 18.025 66.715 C17.706 65.69 17.387 64.665 17.059 63.609 C16.909 63.138 16.909 63.138 16.154 60.753 C15.588 58.008 15.465 56.727 16.625 54.188 C18.483 52.48 18.483 52.48 20.879 50.805 C21.733 50.195 22.587 49.585 23.467 48.957 C23.916 48.644 23.916 48.644 26.188 47.062 C27.964 45.816 29.736 44.563 31.504 43.305 C32.294 42.754 33.083 42.204 33.897 41.636 C34.182 41.397 34.182 41.397 35.625 40.188 C35.625 39.528 35.625 38.867 35.625 38.188 C26.715 38.188 17.805 38.188 8.625 38.188 C7.635 34.888 6.645 31.587 5.625 28.188 C4.741 25.474 3.851 22.766 2.938 20.062 C2.713 19.392 2.488 18.722 2.256 18.031 C1.714 16.416 1.17 14.802 0.625 13.188 C-0.035 13.188 -0.695 13.188 -1.375 13.188 Z " fill="#000000" transform="translate(677.375,2.8125)"/>
<path d="M0 0 C2.625 -0.188 2.625 -0.188 5 0 C5.117 0.44 5.117 0.44 5.707 2.668 C8.64 12.007 8.64 12.007 12.465 14.801 C15.275 16.011 18.101 17.024 21 18 C35.668 24.692 46.394 37.042 52 52 C56.74 65.505 54.483 80.155 49 93 C46.969 96.637 44.669 99.81 42 103 C41.42 103.728 40.84 104.457 40.242 105.207 C36.59 109.621 32.857 112.952 28 116 C27.34 116 26.68 116 26 116 C27.67 118.989 29.408 121.465 31.75 123.938 C34 127 34 127 33.875 130.312 C33 133 33 133 32 134 C29.65 134.235 27.294 134.414 24.938 134.562 C23.647 134.646 22.357 134.73 21.027 134.816 C20.028 134.877 19.029 134.938 18 135 C17.994 135.595 17.988 136.189 17.982 136.802 C17.918 142.983 17.834 149.163 17.738 155.343 C17.704 157.651 17.676 159.958 17.654 162.266 C17.62 165.58 17.568 168.893 17.512 172.207 C17.505 173.241 17.499 174.276 17.492 175.342 C17.473 176.303 17.453 177.263 17.432 178.253 C17.421 179.099 17.41 179.945 17.399 180.817 C17 183 17 183 15.499 184.392 C12.84 187.245 13.591 191.257 13.619 194.965 C13.614 195.893 13.61 196.821 13.605 197.778 C13.593 200.901 13.602 204.024 13.612 207.147 C13.608 209.38 13.602 211.614 13.596 213.848 C13.582 219.924 13.588 226 13.597 232.076 C13.605 238.424 13.598 244.772 13.593 251.12 C13.587 262.464 13.596 273.808 13.612 285.152 C13.625 295.444 13.623 305.737 13.609 316.029 C13.593 327.974 13.587 339.919 13.596 351.863 C13.6 358.189 13.601 364.515 13.591 370.841 C13.582 376.786 13.588 382.731 13.606 388.676 C13.61 390.863 13.609 393.05 13.602 395.238 C13.594 398.213 13.604 401.187 13.619 404.162 C13.616 404.6 13.616 404.6 13.599 406.815 C13.622 409.217 13.622 409.217 14 413 C14.99 413.66 15.98 414.32 17 415 C17 415.66 17 416.32 17 417 C17.288 417.124 17.288 417.124 18.746 417.75 C21.337 419.187 23.02 420.86 25.062 423 C27.337 425.374 29.245 427.163 32 429 C32 429.66 32 430.32 32 431 C32.66 431 33.32 431 34 431 C35.953 434.273 36.245 436.713 36.188 440.5 C36.181 441.438 36.175 442.377 36.168 443.344 C36.018 445.712 35.585 447.715 35 450 C35.316 451.67 35.652 453.336 36 455 C36.128 458.53 36.052 461.707 35.438 465.188 C34.993 468.044 35.305 469.276 36 472 C36.318 477.14 35.866 481.93 35 487 C35.33 487.66 35.66 488.32 36 489 C36.309 494.14 36.068 498.966 35 504 C35.165 504.495 35.165 504.495 36 507 C36.126 510.842 36.145 514.226 35.438 518 C34.974 521.178 35.392 523.815 35.871 526.969 C36.083 530.313 35.149 532.872 34 536 C33 537 33 537 30.801 537.375 C26.893 536.852 24.884 534.664 22.188 532 C21.936 531.762 21.936 531.762 20.666 530.555 C19.433 529.381 18.215 528.192 17 527 C17.428 529.567 17.843 531.702 19.062 534.016 C20.203 536.429 20.068 538.099 20 540.75 C20.262 544.366 20.677 545.661 23.215 548.324 C24.99 549.702 26.802 551.033 28.652 552.309 C31 554 31 554 33 557 C33.343 560.707 33.29 563.29 31.875 566.75 C28.873 570.352 25.476 571.56 21.062 572.875 C17.105 573.037 14.185 572.305 11 570 C7.289 565.549 5.224 560.29 3 555 C2.734 555.488 2.734 555.488 1.391 557.957 C0.678 559.242 -0.036 560.528 -0.75 561.812 C-1.098 562.455 -1.446 563.098 -1.805 563.76 C-3.779 567.288 -5.439 569.993 -9 572 C-14.784 573.446 -18.129 573.158 -23.301 570.16 C-25.597 568.592 -26.856 567.573 -28 565 C-28.393 561.903 -28.622 559.958 -28 557 C-25.958 554.401 -23.88 552.593 -21.145 550.75 C-18.074 548.521 -16.248 547.17 -15.438 543.348 C-15.313 541.42 -15.226 539.49 -15.176 537.559 C-14.958 534.396 -13.83 532.546 -12 530 C-12 529.01 -12 528.02 -12 527 C-12.652 527.638 -13.305 528.276 -13.977 528.934 C-14.414 529.347 -14.414 529.347 -16.625 531.438 C-17.054 531.849 -17.054 531.849 -19.227 533.934 C-22.269 536.2 -24.262 536.699 -28 537 C-30.123 533.816 -30.249 533.038 -30.243 529.393 C-30.246 528.462 -30.249 527.53 -30.252 526.571 C-30.249 526.07 -30.249 526.07 -30.23 523.531 C-30.23 522.499 -30.23 521.468 -30.229 520.404 C-30.226 518.222 -30.218 516.04 -30.206 513.858 C-30.188 510.513 -30.185 507.169 -30.186 503.824 C-30.181 501.706 -30.175 499.587 -30.168 497.469 C-30.167 496.466 -30.166 495.462 -30.165 494.429 C-30.158 493.498 -30.152 492.567 -30.145 491.607 C-30.141 490.788 -30.138 489.969 -30.134 489.125 C-30 487 -30 487 -29 484 C-29.33 483.34 -29.66 482.68 -30 482 C-30.075 479.479 -30.091 476.985 -30.062 474.465 C-30.061 474.089 -30.061 474.089 -30.051 472.184 C-30.035 468.963 -30.007 465.743 -29.979 462.523 C-29.915 454.276 -29.906 446.192 -31 438 C-30.415 431.449 -26.88 428.627 -22.094 424.602 C-21.867 424.4 -21.867 424.4 -20.717 423.38 C-19 422 -19 422 -16.55 420.552 C-12.78 417.961 -9.671 415.468 -8.426 410.888 C-7.488 404.284 -7.749 397.607 -7.865 390.957 C-7.868 388.699 -7.866 386.442 -7.86 384.184 C-7.857 378.071 -7.916 371.959 -7.986 365.846 C-8.049 359.452 -8.054 353.058 -8.066 346.663 C-8.094 335.936 -8.156 325.209 -8.246 314.482 C-8.337 303.436 -8.408 292.391 -8.451 281.345 C-8.453 280.663 -8.456 279.982 -8.459 279.279 C-8.472 275.859 -8.484 272.44 -8.497 269.02 C-8.6 240.679 -8.777 212.34 -9 184 C-9.99 183.67 -10.98 183.34 -12 183 C-12.33 167.16 -12.66 151.32 -13 135 C-17.62 134.67 -22.24 134.34 -27 134 C-29 131 -29 131 -28.75 128.562 C-28.052 126.177 -27.139 124.198 -26 122 C-26.568 121.49 -27.137 120.979 -27.723 120.453 C-38.329 110.467 -45.261 98.061 -46.16 83.387 C-46.572 69.591 -42.831 57.246 -33.688 46.812 C-32.144 45.19 -30.582 43.585 -29 42 C-28.349 41.337 -27.698 40.675 -27.027 39.992 C-23.359 36.512 -20.339 34.723 -15.527 33.152 C-11.902 31.548 -10.341 30.61 -8.391 27.117 C-7.195 23.56 -6.27 20.033 -5.438 16.375 C-4.814 13.924 -4.188 11.473 -3.559 9.023 C-3.431 8.482 -3.431 8.482 -2.787 5.74 C-2 3 -2 3 0 0 Z M2 13 C-3.305 26.262 -5.592 37.744 -5.391 51.898 C-5.383 53.47 -5.377 55.042 -5.373 56.614 C-5.358 60.701 -5.319 64.787 -5.275 68.874 C-5.233 73.064 -5.215 77.255 -5.195 81.445 C-5.153 89.631 -5.083 97.815 -5 106 C-0.05 106 4.9 106 10 106 C10.091 97.132 10.164 88.265 10.207 79.397 C10.228 75.277 10.256 71.158 10.302 67.039 C10.346 63.051 10.369 59.064 10.38 55.076 C10.387 53.567 10.401 52.058 10.423 50.55 C10.61 37.114 8.105 25.507 3 13 C2.67 13 2.34 13 2 13 Z M12 22 C14.913 40.111 14.913 40.111 19.938 44.062 C20.63 44.536 21.322 45.009 22.035 45.496 C25.533 48.174 27.204 52.059 29 56 C29.366 56.766 29.732 57.531 30.109 58.32 C32.378 65.145 32.138 74.365 29.312 81 C28.584 82.357 27.814 83.693 27 85 C26.807 85.323 26.807 85.323 25.832 86.957 C23.65 90.311 22.378 91.815 18.688 93.625 C16 96 16 96 15.48 99.027 C15.209 108.131 15.209 108.131 17.789 110.965 C20 112 20 112 21.984 111.871 C32.895 107.156 40.603 96.282 45.035 85.656 C49.543 73.246 48.946 60.812 44.004 48.523 C38.352 37.455 27.663 26.611 16 22 C14.68 22 13.36 22 12 22 Z M-26.035 46.754 C-34.4 55.576 -39.826 67.932 -40.059 80.047 C-39.598 92.476 -35.323 102.818 -27 112 C-26.52 112.548 -26.041 113.096 -25.547 113.66 C-24.25 115.062 -24.25 115.062 -22 117 C-19 117 -19 117 -17.176 115.426 C-16.561 114.728 -15.946 114.031 -15.312 113.312 C-14.69 112.628 -14.067 111.944 -13.426 111.238 C-11.698 108.525 -11.467 107.16 -12 104 C-13.391 102.297 -13.391 102.297 -15.25 100.75 C-21.528 94.853 -23.559 88.118 -24.031 79.633 C-23.945 72.403 -21.44 66.669 -17 61 C-16.506 60.583 -16.012 60.165 -15.503 59.735 C-11.251 56.073 -11.251 56.073 -10.516 52.926 C-10.411 50.632 -10.474 48.417 -10.625 46.125 C-10.652 45.341 -10.679 44.558 -10.707 43.75 C-10.777 41.832 -10.885 39.916 -11 38 C-16.295 38 -22.176 43.428 -26.035 46.754 Z M16 49 C16 61.87 16 74.74 16 88 C21.137 85.432 22.867 82.437 25.25 77.312 C26.982 69.662 26.854 61.964 23 55 C21.463 52.743 19.923 50.973 18 49 C17.34 49 16.68 49 16 49 Z M-14.938 66.75 C-18.576 72.484 -19.776 79.734 -18.438 86.438 C-17 90 -17 90 -12 95 C-12 85.1 -12 75.2 -12 65 C-13 65 -13 65 -14.938 66.75 Z M-13 118 C-13.67 118.718 -14.341 119.436 -15.031 120.176 C-20 125.568 -20 125.568 -20 128 C-5.15 128 9.7 128 25 128 C22.978 123.956 20.543 121.071 17.5 117.812 C17.001 117.267 16.502 116.721 15.988 116.158 C11.537 111.343 9.418 110.76 2.875 110.5 C-4.639 110.415 -8.266 112.265 -13 118 Z M-6 134 C-5.67 135.65 -5.34 137.3 -5 139 C-2.36 138.835 -2.36 138.835 11 138 C11 136.68 11 135.36 11 134 C5.39 134 -0.22 134 -6 134 Z M-6 144 C-6 145.32 -6 146.64 -6 148 C-0.39 148 5.22 148 11 148 C11 146.68 11 145.36 11 144 C5.39 144 -0.22 144 -6 144 Z M-6 154 C-6 155.32 -6 156.64 -6 158 C-0.615 158.917 4.542 159.111 10 159 C10.33 157.35 10.66 155.7 11 154 C5.39 154 -0.22 154 -6 154 Z M-6 164 C-6 165.65 -6 167.3 -6 169 C-0.72 169 4.56 169 10 169 C10.33 167.68 10.66 166.36 11 165 C10 164 10 164 6.402 163.902 C4.914 163.909 3.426 163.921 1.938 163.938 C1.558 163.94 1.558 163.94 -0.361 163.951 C-2.241 163.963 -4.12 163.981 -6 164 Z M-6 175 C-5.67 176.32 -5.34 177.64 -5 179 C-3.271 179.027 -1.542 179.047 0.188 179.062 C0.669 179.068 0.669 179.068 3.105 179.098 C5.856 179.005 8.325 178.621 11 178 C11 177.01 11 176.02 11 175 C5.131 173.852 -0.089 174.227 -6 175 Z M-1 184 C-2.851 185.851 -2.123 188.477 -2.129 190.94 C-2.126 191.8 -2.123 192.661 -2.12 193.548 C-2.121 194.456 -2.122 195.363 -2.123 196.298 C-2.125 199.363 -2.119 202.428 -2.114 205.492 C-2.113 207.68 -2.113 209.867 -2.114 212.054 C-2.114 218.013 -2.108 223.971 -2.101 229.93 C-2.095 236.149 -2.095 242.368 -2.093 248.588 C-2.091 259.033 -2.084 269.479 -2.075 279.924 C-2.066 290.685 -2.059 301.446 -2.055 312.206 C-2.055 312.869 -2.054 313.532 -2.054 314.215 C-2.053 317.54 -2.052 320.865 -2.05 324.191 C-2.04 351.794 -2.022 379.397 -2 407 C-1.072 406.814 -0.144 406.629 0.812 406.438 C4 406 4 406 7 407 C7 333.41 7 259.82 7 184 C4.36 184 1.72 184 -1 184 Z M-1.199 413.941 C-2.02 414.806 -2.841 415.671 -3.688 416.562 C-6.771 419.74 -9.845 422.845 -13.188 425.75 C-13.82 426.303 -14.453 426.856 -15.105 427.426 C-16.385 428.489 -17.702 429.507 -19.051 430.48 C-23.806 434.035 -23.806 434.035 -24.434 437.152 C-24.438 439.375 -24.438 439.375 -24 443 C-21.037 441.649 -18.792 440.113 -16.375 437.938 C-15.688 437.324 -15.001 436.71 -14.293 436.078 C-12.65 434.589 -11.006 433.099 -9.363 431.609 C-8.48 430.81 -7.597 430.011 -6.688 429.188 C-5.866 428.439 -5.045 427.69 -4.199 426.918 C0.277 423.014 0.277 423.014 3.23 422.957 C7.459 424.55 10.14 427.54 13.312 430.688 C18.283 435.556 23.33 439.956 29 444 C30 443 30 443 30.438 440.375 C29.548 433.516 23.399 429.306 18.355 425.043 C16.501 423.434 14.708 421.799 12.926 420.113 C12.391 419.61 11.856 419.107 11.305 418.589 C10.24 417.583 9.179 416.572 8.125 415.556 C2.717 410.484 2.717 410.484 -1.199 413.941 Z M2 429 C1.154 429.785 0.309 430.57 -0.562 431.379 C-10.85 440.913 -10.85 440.913 -15.5 445 C-16.108 445.539 -16.717 446.078 -17.344 446.633 C-19 448 -19 448 -22 449.875 C-24.416 452.442 -24.296 453.322 -24.312 456.75 C-24.232 458.168 -24.136 459.586 -24 461 C-20.293 459.431 -17.791 457.121 -14.875 454.375 C-11.167 450.97 -7.464 447.571 -3.625 444.312 C-2.854 443.649 -2.083 442.985 -1.289 442.301 C1 441 1 441 3.434 440.977 C6.845 442.337 9.117 444.525 11.688 447.062 C12.736 448.062 13.787 449.06 14.84 450.055 C15.364 450.551 15.889 451.047 16.429 451.558 C20.099 454.927 24.059 457.957 28 461 C28.66 460.67 29.32 460.34 30 460 C30.322 456.536 30.348 454.565 28.5 451.562 C25.873 448.87 23.142 446.404 20.281 443.965 C16.947 441.093 13.726 438.098 10.492 435.113 C7.776 432.81 4.995 430.923 2 429 Z M-2.875 451.438 C-7.626 455.824 -12.534 459.957 -17.59 463.992 C-23.856 469.213 -23.856 469.213 -24.391 472.141 C-24.344 472.837 -24.298 473.533 -24.25 474.25 C-24.168 475.487 -24.085 476.725 -24 478 C-18.651 476.501 -15.421 472.903 -11.562 469.125 C-7.255 464.934 -3.13 461.156 2 458 C4.963 459.351 7.208 460.887 9.625 463.062 C10.315 463.677 11.004 464.292 11.715 464.926 C13.336 466.398 14.953 467.875 16.566 469.355 C17.431 470.146 18.296 470.936 19.188 471.75 C19.985 472.487 20.783 473.225 21.605 473.984 C23.956 475.963 26.325 477.499 29 479 C30 478 30 478 30.562 474.938 C29.353 466.469 20.018 461.26 13.695 456.188 C10.532 453.62 7.488 450.939 4.461 448.215 C1.307 445.592 -0.339 449.078 -2.875 451.438 Z M-2.512 468.035 C-2.85 468.358 -2.85 468.358 -4.561 469.99 C-5.262 470.674 -5.964 471.358 -6.688 472.062 C-8.065 473.388 -9.444 474.712 -10.824 476.035 C-11.507 476.69 -12.189 477.345 -12.892 478.02 C-15.679 480.638 -18.551 483.151 -21.445 485.65 C-22.319 486.409 -23.182 487.182 -24 488 C-24.071 489.352 -24.084 490.708 -24.062 492.062 C-24.042 493.362 -24.021 494.661 -24 496 C-20.495 494.484 -18.091 492.412 -15.312 489.812 C-11.252 486.072 -7.071 482.67 -2.617 479.41 C-2.084 478.945 -1.55 478.479 -1 478 C-1 477.34 -1 476.68 -1 476 C2.053 475.501 4.174 475.438 6.789 477.216 C8.741 478.959 10.597 480.764 12.438 482.625 C13.706 483.869 14.975 485.111 16.246 486.352 C16.866 486.959 17.486 487.567 18.125 488.192 C19.983 489.984 21.86 491.741 23.785 493.461 C24.332 493.951 24.878 494.442 25.442 494.947 C27 496 27 496 30 496 C30.527 489.748 30.527 489.748 28.199 486.445 C27.37 485.68 26.541 484.914 25.688 484.125 C24.78 483.278 23.872 482.431 22.938 481.559 C19.211 478.313 15.425 475.162 11.543 472.105 C9 470 9 470 6.363 467.238 C2.599 463.673 0.835 464.798 -2.512 468.035 Z M2 482 C1.613 482.356 1.613 482.356 -0.344 484.16 C-9.78 492.843 -9.78 492.843 -14.375 496.875 C-14.991 497.42 -15.607 497.966 -16.242 498.527 C-18 500 -18 500 -19.82 501.254 C-22.189 502.923 -23.85 504.149 -24.367 507.086 C-24.375 509.312 -24.375 509.312 -24 513 C-21.07 511.664 -18.875 510.166 -16.5 508 C-12.939 504.821 -9.338 501.701 -5.688 498.625 C-4.681 497.772 -3.674 496.918 -2.637 496.039 C0 494 0 494 3 493 C4.734 493.977 4.734 493.977 6.75 495.625 C7.531 496.258 8.312 496.891 9.117 497.543 C11.371 499.464 13.601 501.403 15.82 503.363 C16.488 503.951 17.156 504.539 17.845 505.144 C19.189 506.332 20.528 507.528 21.858 508.731 C22.48 509.283 23.102 509.834 23.742 510.402 C24.298 510.902 24.853 511.402 25.425 511.918 C27 513 27 513 30 513 C30.322 509.536 30.348 507.565 28.5 504.562 C25.896 501.893 23.189 499.453 20.352 497.035 C16.686 493.863 13.159 490.539 9.613 487.234 C7.182 485.155 4.791 483.549 2 482 Z M-4 504 C-4 504.66 -4 505.32 -4 506 C-4.536 506.218 -5.072 506.436 -5.625 506.66 C-8.834 508.471 -11.345 510.918 -14 513.438 C-19.636 518.746 -19.636 518.746 -22.359 520.648 C-22.901 521.094 -23.442 521.54 -24 522 C-24.25 525.188 -24.25 525.188 -24 528 C-20.322 526.435 -17.788 524.146 -14.875 521.438 C-10.194 517.097 -10.194 517.097 -8 516 C-8 515.34 -8 514.68 -8 514 C-7.464 513.753 -6.928 513.505 -6.375 513.25 C-4 512 -4 512 -1.062 509.75 C2 508 2 508 4.297 508.535 C7.791 510.429 10.477 512.949 13.312 515.688 C14.458 516.77 15.603 517.852 16.75 518.934 C17.027 519.196 17.027 519.196 18.426 520.523 C21.536 523.441 24.764 526.224 28 529 C28.66 528.01 29.32 527.02 30 526 C28.945 521.654 26.706 519.482 23.375 516.625 C22.48 515.849 21.586 515.073 20.664 514.273 C19.785 513.523 18.906 512.773 18 512 C16.582 510.751 15.165 509.501 13.75 508.25 C13.112 507.697 12.474 507.144 11.816 506.574 C10.628 505.545 9.448 504.506 8.277 503.457 C3.102 498.917 0.986 499.418 -4 504 Z M-3.457 517.816 C-6.089 521.541 -5.755 525.54 -5.734 529.977 C-6.037 533.417 -6.94 534.348 -9 537 C-9.336 539.621 -9.336 539.621 -9.375 542.438 C-9.641 546.372 -9.737 547.654 -12.188 550.875 C-13.116 551.576 -14.044 552.278 -15 553 C-20.667 557.39 -20.667 557.39 -22.125 560.062 C-22 562 -22 562 -20.438 564.25 C-18 566 -18 566 -15 566.5 C-11.221 565.87 -10.455 564.905 -8 562 C-6.66 559.592 -5.426 557.233 -4.25 554.75 C-3.934 554.1 -3.618 553.451 -3.293 552.781 C-2.521 551.191 -1.76 549.596 -1 548 C1.31 548 3.62 548 6 548 C6.262 548.51 6.524 549.019 6.794 549.545 C7.982 551.845 9.178 554.141 10.375 556.438 C10.788 557.24 11.2 558.042 11.625 558.869 C12.025 559.633 12.424 560.397 12.836 561.184 C13.019 561.537 13.019 561.537 13.947 563.326 C15 565 15 565 17 566 C19.875 566.312 19.875 566.312 23 566 C25.375 564 25.375 564 27 562 C25.636 556.846 22.274 553.934 18 551 C17.34 551 16.68 551 16 551 C15.807 549.868 15.613 548.736 15.414 547.57 C15.151 546.088 14.888 544.607 14.625 543.125 C14.499 542.379 14.372 541.632 14.242 540.863 C13.227 535.227 13.227 535.227 11 533 C10.851 531.108 10.779 529.21 10.75 527.312 C10.4 521.828 9.269 519.027 5.473 515.109 C2.019 512.507 -0.709 515.453 -3.457 517.816 Z " fill="#000000" transform="translate(675,93)"/>
<path d="M0 0 C1.479 1.1 1.479 1.1 3 3 C3.361 5.866 3.361 5.866 3.341 9.399 C3.341 10.043 3.341 10.688 3.342 11.351 C3.34 13.478 3.316 15.604 3.293 17.73 C3.287 19.206 3.283 20.681 3.28 22.157 C3.269 26.038 3.239 29.92 3.206 33.801 C3.175 37.763 3.162 41.724 3.146 45.686 C3.114 53.457 3.063 61.229 3 69 C1.35 69 -0.3 69 -2 69 C-2.046 60.594 -2.082 52.188 -2.104 43.782 C-2.114 39.879 -2.128 35.976 -2.151 32.073 C-2.173 28.306 -2.185 24.539 -2.19 20.771 C-2.193 19.334 -2.201 17.898 -2.211 16.461 C-2.226 14.447 -2.227 12.434 -2.227 10.421 C-2.231 9.275 -2.236 8.129 -2.241 6.949 C-2.006 4.076 -1.497 2.428 0 0 Z " fill="#000000" transform="translate(677,124)"/>
<path d="M0 0 C2.098 2.152 2.098 2.152 2.41 4.902 C2.359 5.274 2.359 5.274 2.098 7.152 C1.417 7.432 0.736 7.712 0.035 8 C-2.051 8.863 -4.134 9.732 -6.215 10.605 C-8.09 11.392 -9.965 12.178 -11.848 12.947 C-21.257 16.794 -29.698 21.042 -37.902 27.152 C-38.837 27.841 -39.771 28.529 -40.734 29.238 C-56.373 41.355 -68.011 58.299 -70.902 78.152 C-72.711 104.093 -65.289 126.467 -48.926 146.582 C-45.459 150.558 -41.79 154.277 -37.977 157.918 C-18.344 176.778 -2.787 200.445 0.098 228.152 C0.348 228.072 0.348 228.072 1.613 227.668 C4.334 227.103 6.961 227.03 9.733 226.963 C17.137 226.75 22.211 225.816 28.098 221.152 C38.873 215.896 54.811 216.789 66.098 220.152 C68.711 221.256 69.985 222.154 72.098 224.152 C72.464 226.603 72.464 226.603 72.098 229.152 C70.616 230.758 70.616 230.758 68.555 232.125 C67.81 232.632 67.066 233.139 66.299 233.662 C65.511 234.175 64.722 234.687 63.91 235.215 C62.374 236.246 60.839 237.279 59.305 238.312 C58.939 238.558 58.939 238.558 57.087 239.798 C42.338 249.842 32.124 267.439 28.49 284.75 C26.545 296.655 27.361 309.046 32.098 320.152 C32.533 321.177 32.969 322.202 33.418 323.258 C39.931 337.299 50.259 347.662 63.285 355.777 C79.021 365.626 86.821 380.433 91.144 398.266 C92.212 403.154 92.387 407.831 92.363 412.82 C92.366 413.726 92.369 414.632 92.372 415.566 C92.376 418.49 92.364 421.415 92.348 424.34 C92.345 425.336 92.341 426.332 92.338 427.358 C92.291 440.156 92.09 452.937 91.348 465.715 C91.286 466.936 91.225 468.158 91.161 469.417 C91.083 470.527 91.006 471.637 90.926 472.781 C90.863 473.731 90.8 474.68 90.735 475.658 C89.915 478.867 88.699 480.142 86.098 482.152 C81.58 482.726 79.511 482.798 75.395 480.918 C71.604 476.354 72.314 471.149 72.285 465.402 C72.26 464.228 72.235 463.054 72.209 461.844 C72.15 458.946 72.114 456.05 72.098 453.152 C69.157 453.152 68.314 454.696 66.223 456.715 C54.406 467.312 40.525 472.84 24.598 472.152 C17.846 471.393 12.445 469.396 6.824 465.629 C3.506 463.832 0.191 463.155 -3.465 462.402 C-13.357 460.13 -22.496 456.066 -28.875 447.855 C-29.902 446.152 -29.902 446.152 -30.965 442.84 C-31.274 441.953 -31.584 441.066 -31.902 440.152 C-33.555 439.451 -35.225 438.791 -36.902 438.152 C-46.115 432.44 -52.539 426.117 -56.902 416.152 C-57.232 413.934 -57.479 411.701 -57.652 409.465 C-58.455 402.978 -60.451 399.198 -64.148 393.918 C-71.007 383.104 -70.826 370.791 -69.152 358.527 C-68.558 353.101 -69.952 348.919 -71.895 343.879 C-75.311 334.635 -74.063 325.535 -71.902 316.152 C-71.565 314.487 -71.23 312.82 -70.902 311.152 C-71.537 311.261 -71.537 311.261 -74.75 311.809 C-97.019 315.471 -122.838 316.754 -142.637 303.938 C-146.575 300.834 -149.983 297.23 -152.902 293.152 C-152.902 292.492 -152.902 291.832 -152.902 291.152 C-153.635 290.882 -154.367 290.611 -155.121 290.332 C-157.8 289.196 -160.001 287.909 -162.402 286.277 C-163.135 285.785 -163.867 285.293 -164.621 284.785 C-169.211 281.5 -172.298 278.904 -175.027 273.902 C-178.321 268.499 -181.997 265.547 -187.191 262.039 C-197.222 255.058 -204.734 244.219 -207.59 232.277 C-208.936 229.072 -210.214 227.629 -212.59 225.152 C-221.706 215.371 -225.096 204.27 -225.09 191.152 C-225.093 190.215 -225.095 189.277 -225.098 188.311 C-225.068 183.061 -224.716 178.137 -223.715 172.965 C-222.757 167.808 -223.397 164.729 -225.145 159.863 C-228.542 147.709 -225.019 135.873 -219.27 125.09 C-215.6 118.85 -215.6 118.85 -213.902 117.152 C-213.881 115.34 -213.912 113.527 -213.965 111.715 C-214.022 95.685 -207.851 84.282 -196.871 72.961 C-194.589 70.713 -192.279 68.996 -189.527 67.34 C-184.419 63.868 -183.222 57.722 -181.336 52.145 C-176.295 37.468 -165.468 27.9 -151.82 21.195 C-147.511 19.655 -143.067 18.983 -138.523 18.491 C-134.567 17.948 -133.028 17.286 -130.254 14.344 C-129.866 13.817 -129.866 13.817 -127.902 11.152 C-116.644 0.752 -104.947 -5.124 -89.347 -4.793 C-85.879 -4.58 -82.418 -4.296 -78.956 -4.01 C-72.828 -3.611 -68.562 -4.406 -63.191 -7.621 C-47.905 -15.812 -14.106 -8.98 0 0 Z M-83.902 14.152 C-102.203 31.734 -112.515 56.675 -113.188 81.87 C-113.475 107.206 -106.499 130.988 -90.902 151.152 C-90.195 152.086 -89.487 153.019 -88.758 153.98 C-84.726 159.182 -84.726 159.182 -82.902 161.152 C-82.242 161.152 -81.582 161.152 -80.902 161.152 C-80.902 161.812 -80.902 162.472 -80.902 163.152 C-79.398 164.551 -77.82 165.87 -76.215 167.152 C-75.213 167.957 -74.212 168.761 -73.18 169.59 C-70.461 171.732 -67.703 173.819 -64.936 175.899 C-41.634 193.511 -27.455 217.424 -22.902 246.152 C-22.478 245.789 -22.054 245.425 -21.617 245.051 C-21.031 244.548 -20.444 244.045 -19.84 243.527 C-19.207 242.978 -18.574 242.429 -17.922 241.863 C-16.612 240.754 -15.277 239.673 -13.914 238.629 C-13.291 238.142 -12.669 237.654 -12.027 237.152 C-11.452 236.719 -10.878 236.286 -10.285 235.84 C-8.245 233.35 -8.136 231.338 -7.902 228.152 C-10.537 202.844 -25.018 180.012 -43.402 163.152 C-63.948 144.291 -77.185 120.132 -79.117 92.027 C-79.803 69.635 -71.756 49.947 -56.719 33.633 C-43.764 20.05 -27.611 10.374 -9.902 4.152 C-33.014 -11.256 -64.954 -2.31 -83.902 14.152 Z M-125.25 19.199 C-126.902 21.152 -126.902 21.152 -126.902 23.152 C-127.562 23.152 -128.222 23.152 -128.902 23.152 C-130.609 25.39 -132.177 27.615 -133.715 29.965 C-134.166 30.652 -134.616 31.339 -135.081 32.047 C-148.459 52.809 -151.507 76.408 -146.441 100.329 C-141.605 120.743 -131.384 139.746 -116.961 154.969 C-115.119 156.922 -113.458 158.936 -111.777 161.027 C-103.354 170.643 -92.596 178.149 -80.902 183.152 C-78.892 184.017 -76.882 184.882 -74.873 185.749 C-73.488 186.346 -72.102 186.941 -70.715 187.533 C-65.787 189.668 -61.234 192.158 -56.723 195.086 C-54.902 196.152 -54.902 196.152 -52.902 196.152 C-56.592 187.803 -64.758 182.363 -71.902 177.09 C-96.115 159.16 -112.605 134.362 -117.402 104.227 C-117.577 102.87 -117.743 101.511 -117.902 100.152 C-117.987 99.426 -118.072 98.7 -118.16 97.952 C-121.007 71.158 -114.556 43.517 -98.152 21.891 C-92.757 15.325 -86.946 9.125 -80.902 3.152 C-99.686 2.509 -111.692 5.572 -125.25 19.199 Z M-165.938 40.18 C-175.804 51.824 -180.025 68.151 -180.902 83.152 C-180.955 83.921 -181.008 84.689 -181.062 85.48 C-182.205 117.869 -166.167 146.997 -144.992 170.25 C-126.761 189.171 -102.841 199.823 -77.402 204.59 C-62.121 207.488 -49.865 212.54 -36.902 221.152 C-36.902 217.402 -37.703 216.181 -39.902 213.152 C-42.101 211.27 -44.242 209.574 -46.59 207.902 C-47.255 207.425 -47.92 206.947 -48.605 206.456 C-59.002 199.13 -69.77 193.528 -81.527 188.715 C-93.616 183.736 -103.59 177.296 -112.449 167.551 C-113.902 166.152 -113.902 166.152 -115.902 166.152 C-115.902 165.492 -115.902 164.832 -115.902 164.152 C-116.562 164.152 -117.222 164.152 -117.902 164.152 C-118.031 163.862 -118.031 163.862 -118.684 162.391 C-120.004 159.965 -121.489 158.328 -123.402 156.34 C-144.547 132.897 -155.396 102.158 -154.071 70.771 C-153.119 55.984 -148.652 42.522 -140.258 30.297 C-138.902 28.152 -138.902 28.152 -138.902 26.152 C-149.296 26.152 -158.865 33.134 -165.938 40.18 Z M-190.988 77.059 C-200.493 87.829 -206.784 97.34 -205.902 112.152 C-202.002 143.301 -184.494 172.607 -159.902 192.152 C-159.646 192.357 -159.646 192.357 -158.349 193.391 C-138.474 209.055 -116.04 218.245 -90.643 219.761 C-69.903 221.015 -51.838 225.921 -34.09 236.891 C-31.902 238.152 -31.902 238.152 -29.902 238.152 C-32.2 229.648 -38.479 226.12 -45.781 221.816 C-58.511 214.62 -71.066 210.757 -85.402 208.215 C-117.195 202.528 -145.926 182.522 -164.337 156.092 C-178.433 135.018 -186.153 112.702 -185.965 87.215 C-185.96 86.054 -185.956 84.893 -185.951 83.697 C-185.939 80.849 -185.923 78.001 -185.902 75.152 C-188.902 75.152 -188.902 75.152 -190.988 77.059 Z M-210.902 127.152 C-216.974 134.222 -218.623 143.805 -218.277 152.871 C-216.238 170.718 -205.694 184.422 -193.902 197.152 C-193.139 197.986 -192.376 198.82 -191.59 199.68 C-164.025 228.511 -126.791 240.648 -87.84 241.59 C-48.772 242.693 -48.772 242.693 -31.902 251.152 C-30.912 251.152 -29.922 251.152 -28.902 251.152 C-29.633 247.221 -31.247 245.386 -34.375 242.859 C-52.305 230.749 -73.569 225.345 -94.965 224.715 C-127.272 223.696 -156.67 205.412 -178.527 182.465 C-184.763 175.594 -189.889 167.937 -194.902 160.152 C-195.574 159.121 -196.246 158.09 -196.938 157.027 C-201.136 150.236 -203.99 143.213 -206.641 135.719 C-207.663 132.83 -208.739 129.987 -209.902 127.152 C-210.232 127.152 -210.562 127.152 -210.902 127.152 Z M-216.902 179.152 C-217.02 182.777 -217.09 186.401 -217.152 190.027 C-217.186 191.041 -217.219 192.054 -217.254 193.098 C-217.435 207.186 -211.013 215.938 -201.59 225.777 C-197.058 230.186 -192.229 233.764 -186.902 237.152 C-186.01 237.727 -185.118 238.302 -184.199 238.895 C-156.765 255.76 -122.916 262.767 -91.152 258.652 C-75.308 256.735 -58.581 255.546 -43.082 260.332 C-42.033 260.603 -40.983 260.873 -39.902 261.152 C-36.965 259.402 -36.965 259.402 -34.902 257.152 C-34.902 256.492 -34.902 255.832 -34.902 255.152 C-42.286 252.215 -49.424 250.164 -57.277 248.965 C-58.367 248.795 -59.456 248.626 -60.578 248.451 C-72.173 246.83 -83.788 246.614 -95.482 246.568 C-136.724 246.255 -171.74 227.604 -200.371 198.656 C-205.367 193.31 -209.404 187.633 -213.273 181.426 C-213.811 180.676 -214.349 179.925 -214.902 179.152 C-215.562 179.152 -216.222 179.152 -216.902 179.152 Z M13.098 243.152 C-1.887 261.718 -4.642 284.424 -2.7 307.561 C-0.407 325.988 9.961 345.781 24.668 357.392 C28.378 360.132 32.222 362.653 36.098 365.152 C55.89 378.12 73.552 397.803 78.616 421.588 C79.286 426.543 79.334 431.461 79.414 436.457 C79.435 437.536 79.456 438.615 79.477 439.727 C79.542 443.16 79.601 446.594 79.66 450.027 C79.703 452.361 79.747 454.694 79.791 457.027 C79.898 462.736 80 468.444 80.098 474.152 C80.758 474.152 81.418 474.152 82.098 474.152 C82.414 471.132 82.725 468.111 83.035 465.09 C83.122 464.262 83.209 463.433 83.299 462.58 C84.622 449.594 85.295 436.643 85.348 423.59 C85.368 422.296 85.389 421.003 85.41 419.67 C85.478 402.859 81.577 387.131 72.098 373.152 C71.693 372.537 71.288 371.923 70.871 371.289 C67.292 366.513 62.486 363.717 57.486 360.626 C51.762 357.05 46.882 352.92 42.098 348.152 C41.328 347.406 40.559 346.66 39.766 345.891 C26.146 331.853 19.747 313.094 19.949 293.73 C20.881 271.274 31.536 253.106 47.453 237.902 C51.455 234.255 55.486 230.99 60.098 228.152 C56.625 224.68 51.632 225.091 46.91 224.902 C32.159 225.104 22.415 232.378 13.098 243.152 Z M-12.59 244.59 C-12.971 245.013 -12.971 245.013 -14.902 247.152 C-15.143 247.385 -15.143 247.385 -16.359 248.562 C-26.888 259.411 -28.254 275.914 -28.207 290.294 C-27.695 313.598 -17.768 333.975 -3.902 352.152 C-3.414 352.828 -2.925 353.503 -2.422 354.199 C8.454 368.254 25.916 377.065 43.098 380.152 C44.088 379.822 45.078 379.492 46.098 379.152 C41.646 374.849 37.062 371.424 31.723 368.277 C12.872 356.976 -0.847 338.353 -6.446 317.088 C-11.937 293.589 -9.15 269.442 2.676 248.336 C5.408 244.086 8.574 240.274 11.996 236.562 C13.098 235.152 13.098 235.152 13.098 233.152 C2.968 233.152 -5.332 238.007 -12.59 244.59 Z M-196.902 237.152 C-194.978 244.131 -190.877 248.088 -185.902 253.152 C-185.306 253.774 -184.709 254.395 -184.094 255.035 C-165.147 273.18 -134.815 281.362 -109.226 281.234 C-97.733 280.829 -86.997 277.687 -76.113 274.218 C-67.933 271.686 -60.209 271.013 -51.637 271.238 C-48.902 271.152 -48.902 271.152 -47.027 269.652 C-46.656 269.157 -46.285 268.662 -45.902 268.152 C-46.232 267.162 -46.562 266.172 -46.902 265.152 C-61.476 259.25 -78.557 262.11 -93.641 264.084 C-126.77 268.353 -160.668 259.433 -188.902 242.152 C-189.775 241.619 -190.648 241.085 -191.547 240.535 C-193.341 239.423 -195.124 238.291 -196.902 237.152 Z M-35.152 264.215 C-36.077 265.186 -36.993 266.166 -37.902 267.152 C-38.404 267.683 -38.905 268.215 -39.422 268.762 C-48.727 279.033 -51.571 292.038 -51.188 305.738 C-49.099 330.743 -37.227 354.183 -18.961 371.441 C-2.323 385.269 14.59 391.476 35.999 393.294 C45.863 394.243 54.963 397.401 64.098 401.152 C61.045 394.214 56.907 391.311 50.098 388.152 C44.032 385.844 37.872 383.944 31.633 382.164 C8.621 375.515 -8.32 358.76 -19.902 338.152 C-28.461 322.216 -33.1 306.777 -33.09 288.59 C-33.09 288.01 -33.09 288.01 -33.092 285.073 C-33.044 277.254 -32.637 269.802 -30.902 262.152 C-32.902 262.152 -32.902 262.152 -35.152 264.215 Z M-163.902 275.152 C-152.098 288.53 -130.794 294.694 -113.539 296.027 C-95.003 296.906 -70.517 295.904 -54.902 284.152 C-53.29 281.777 -52.674 279.962 -51.902 277.152 C-61.947 276.549 -70.661 278.281 -80.215 281.09 C-107.441 288.912 -131.417 286.574 -157.838 276.861 C-159.843 276.173 -161.839 275.634 -163.902 275.152 Z M-67.027 295.027 C-87.041 302.24 -111.682 304.674 -132.152 297.465 C-135.902 296.152 -135.902 296.152 -138.902 297.152 C-122.288 309.006 -98.454 308.179 -79.293 305.098 C-77.495 304.788 -75.698 304.473 -73.902 304.152 C-73.074 304.006 -72.246 303.86 -71.393 303.71 C-69.135 303.292 -66.895 302.83 -64.652 302.34 C-63.389 302.065 -62.126 301.791 -60.824 301.508 C-57.902 300.152 -57.902 300.152 -56.48 297.141 C-55.902 294.152 -55.902 294.152 -55.902 292.152 C-59.946 292.152 -63.286 293.641 -67.027 295.027 Z M-57.902 306.152 C-64.769 314.773 -66.959 325.343 -65.902 336.152 C-63.106 355.785 -49.73 375.324 -34.322 387.39 C-27.382 392.592 -20.152 396.798 -12.152 400.152 C-11.492 400.431 -10.832 400.71 -10.152 400.997 C1.49 405.577 13.187 405.348 25.471 405.036 C39.08 404.717 51.29 406.227 64.023 411.48 C66.098 412.152 66.098 412.152 68.098 411.152 C56.767 402.402 44.838 398.495 30.653 397.521 C7.431 395.912 -9.453 387.427 -25.902 371.152 C-26.556 370.559 -27.209 369.966 -27.883 369.355 C-45.011 353.521 -54.303 328.813 -56.902 306.152 C-57.232 306.152 -57.562 306.152 -57.902 306.152 Z M-61.902 365.152 C-62.72 377.439 -60.669 387.478 -52.734 397.16 C-36.34 414.988 -15.763 422.197 8.098 424.152 C16.07 424.438 23.803 423.067 31.598 421.59 C44.258 419.198 55.661 419.689 68.098 423.152 C69.43 423.489 70.763 423.824 72.098 424.152 C70.201 419.124 66.549 417.849 61.876 415.699 C49.199 410.282 36.411 409.651 22.848 410.09 C-1.684 410.82 -21.974 404.218 -40.902 388.152 C-41.556 387.656 -42.209 387.16 -42.883 386.648 C-49.851 381.146 -54.699 373.678 -59.814 366.51 C-60.173 366.062 -60.532 365.614 -60.902 365.152 C-61.232 365.152 -61.562 365.152 -61.902 365.152 Z M-49.902 408.152 C-49.749 416.564 -45.929 420.984 -40.234 426.879 C-27.461 438.712 -8.658 441.544 8.12 441.099 C19.17 440.583 28.959 437.415 39.336 433.77 C48.426 430.607 57.539 429.786 67.098 429.152 C62.835 424.889 55.876 425.017 50.133 424.973 C43.072 425.021 36.3 425.987 29.348 427.152 C1.725 431.72 -23.996 426.5 -46.902 410.152 C-47.892 409.492 -48.882 408.832 -49.902 408.152 Z M30.91 441.777 C13.989 448.065 -4.475 446.735 -21.902 443.152 C-15.839 451.57 -5.992 454.722 3.891 456.68 C18.417 458.821 32.427 455.437 45.098 448.152 C54.321 443.014 61.516 439.947 72.098 439.152 C71.933 438.657 71.933 438.657 71.098 436.152 C59.007 431.598 42.32 437.418 30.91 441.777 Z M66.098 444.152 C58.947 446.263 52.797 449.398 46.41 453.152 C38.233 457.919 30.372 460.459 21.098 462.152 C21.428 462.812 21.758 463.472 22.098 464.152 C37.462 465.318 49.374 460.942 61.098 451.152 C61.76 450.616 62.423 450.08 63.105 449.527 C64.454 448.424 65.78 447.292 67.098 446.152 C66.933 445.822 66.933 445.822 66.098 444.152 Z " fill="#000000" transform="translate(540.90234375,143.84765625)"/>
<path d="M0 0 C3.319 1.741 4.943 1.161 8.539 0.332 C23.375 -0.732 40.104 1.004 51.703 10.996 C59.323 17.79 59.323 17.79 61.926 21.09 C64.559 23.117 67.708 23.155 70.914 23.582 C85.169 25.915 96.546 33.628 105.566 44.855 C108.707 49.433 110.745 53.793 112.391 59.097 C115.685 69.506 121.69 74.853 129.85 81.825 C138.677 89.7 143.419 99.671 144.539 111.332 C144.43 113.125 144.305 114.917 144.164 116.707 C144.001 123.069 147.064 126.994 150.496 132.145 C156.309 141.214 158.937 152.051 156.887 162.73 C156.331 164.929 155.762 167.125 155.18 169.316 C154.125 174.283 154.875 178.62 156.066 183.484 C158.696 199.325 156.316 213.432 147.406 226.816 C145.674 229.151 143.848 231.224 141.852 233.332 C138.436 237.05 137.169 240.713 135.621 245.461 C131.194 257.209 122.395 266.296 111.539 272.332 C110.879 272.332 110.219 272.332 109.539 272.332 C109.435 273.067 109.33 273.802 109.223 274.559 C107.062 283.326 98.83 288.878 91.539 293.332 C90.252 294.027 88.96 294.716 87.664 295.395 C84.048 297.636 82.833 299.786 80.539 303.332 C69.102 315.972 50.655 318.664 34.395 319.492 C23.255 319.77 12.508 318.12 1.539 316.332 C1.77 317.012 2 317.691 2.238 318.392 C7.084 333.155 4.396 346.19 -0.148 360.496 C-0.534 362.762 -0.146 364.252 0.477 366.457 C2.843 376.392 2.112 387.209 -3.113 396.164 C-3.418 396.635 -3.418 396.635 -4.961 399.02 C-8.108 404.015 -9.191 408.161 -9.961 413.895 C-11.533 425.099 -16.619 432.499 -25.312 439.738 C-31.505 444.332 -31.505 444.332 -35.461 444.332 C-35.554 444.745 -35.554 444.745 -36.023 446.832 C-39.31 454.834 -46.153 460.985 -53.996 464.453 C-58.535 466.196 -62.913 467.481 -67.711 468.27 C-71.103 468.864 -73.121 469.58 -75.773 471.77 C-83.095 477.548 -93.295 477.917 -102.207 476.898 C-117.019 474.32 -128.734 467.761 -139.461 457.332 C-140.461 458.332 -140.461 458.332 -140.527 460.478 C-140.503 461.404 -140.478 462.331 -140.453 463.285 C-140.445 463.791 -140.445 463.791 -140.402 466.352 C-140.358 468.49 -140.306 470.628 -140.246 472.766 C-140.232 473.783 -140.218 474.8 -140.203 475.848 C-140.192 476.313 -140.192 476.313 -140.136 478.669 C-140.528 481.88 -141.574 483.729 -143.461 486.332 C-145.788 487.495 -147.308 487.531 -149.898 487.582 C-150.681 487.608 -151.463 487.634 -152.27 487.66 C-154.461 487.332 -154.461 487.332 -156.176 486.34 C-158.22 483.146 -158.273 479.649 -158.586 475.957 C-158.659 475.221 -158.733 474.485 -158.809 473.727 C-159.048 471.263 -159.254 468.798 -159.461 466.332 C-159.549 465.424 -159.636 464.516 -159.726 463.58 C-160.582 454.014 -160.715 444.457 -160.756 434.859 C-160.768 432.971 -160.788 431.084 -160.818 429.197 C-161.06 413.641 -159.808 399.383 -152.461 385.332 C-152.03 384.452 -151.6 383.571 -151.156 382.664 C-145.685 371.944 -138.999 365.423 -129.033 358.983 C-114.892 349.836 -104.766 337.44 -99.461 321.332 C-99.144 320.379 -98.827 319.427 -98.5 318.445 C-93.665 301.833 -96.387 283.351 -104.641 268.234 C-112.887 255.086 -122.857 245.34 -135.992 236.961 C-138.461 235.332 -138.461 235.332 -140.461 233.332 C-140.398 230.895 -140.398 230.895 -139.461 228.332 C-131.201 221.362 -117.595 222.802 -107.461 223.332 C-102.347 223.83 -98.815 225.045 -94.523 227.832 C-88.658 231.387 -82.056 231.432 -75.375 231.973 C-71.461 232.332 -71.461 232.332 -68.461 233.332 C-68.424 232.998 -68.424 232.998 -68.234 231.305 C-64.554 204.421 -49.105 178.406 -28.41 161.027 C-10.225 145.211 0.624 121.054 2.82 97.289 C3.502 76.236 -4.734 57.064 -18.931 41.751 C-31.413 28.912 -47.697 21.065 -64.41 15.233 C-69.269 13.524 -69.269 13.524 -71.461 11.332 C-71.344 8.867 -71.344 8.867 -70.461 6.332 C-55.828 -5.667 -15.453 -10.474 0 0 Z M-34.711 3.082 C-35.529 3.166 -36.348 3.249 -37.191 3.335 C-44.283 4.148 -50.753 5.851 -57.461 8.332 C-57.461 8.992 -57.461 9.652 -57.461 10.332 C-57.007 10.496 -57.007 10.496 -54.707 11.328 C-40.344 16.694 -27.905 24.057 -16.461 34.332 C-15.682 35.017 -14.904 35.701 -14.102 36.406 C1.147 50.63 9.402 70.974 10.602 91.621 C10.114 120.593 -3.257 147.018 -23.461 167.332 C-24.8 168.536 -26.154 169.725 -27.523 170.895 C-44.978 185.836 -57.809 209.463 -60.461 232.332 C-60.613 233.331 -60.765 234.33 -60.922 235.359 C-60.221 239.881 -57.472 241.776 -54.086 244.645 C-53.483 245.181 -52.879 245.718 -52.258 246.271 C-47.897 250.114 -47.897 250.114 -45.461 251.332 C-45.326 250.374 -45.19 249.416 -45.051 248.43 C-40.282 217.788 -21.914 193.849 2.664 175.77 C21.615 161.695 34.259 140.909 40.539 118.332 C40.859 117.222 41.178 116.112 41.508 114.969 C47.644 89.883 43.741 62.493 31.227 40.02 C21.509 24.245 6.757 7.762 -11.898 3.082 C-19.296 1.403 -27.239 2.317 -34.711 3.082 Z M11.539 8.332 C13.86 10.673 16.177 13.001 18.609 15.227 C38.081 33.402 48.563 59.186 49.758 85.535 C50.691 117.521 39.055 147.212 17.265 170.659 C12.793 175.293 7.896 179.182 2.719 182.992 C-4.757 188.494 -11.704 194.019 -17.461 201.332 C-17.131 201.992 -16.801 202.652 -16.461 203.332 C-15.622 202.787 -14.783 202.241 -13.918 201.68 C-6.485 196.979 0.946 193.195 9.102 189.895 C37.366 178.208 59.053 152.646 71.021 124.827 C75.636 113.586 79.062 101.517 79.539 89.332 C79.565 88.891 79.565 88.891 79.695 86.656 C80.448 63.49 71.632 41.666 55.977 24.77 C48.507 16.975 42.27 11.765 31.539 9.332 C30.776 9.144 30.013 8.956 29.227 8.762 C25.72 8.201 22.266 8.226 18.727 8.27 C18.034 8.274 17.341 8.279 16.627 8.283 C14.931 8.295 13.235 8.313 11.539 8.332 Z M69.539 31.332 C70.895 34.967 72.561 38.366 74.357 41.801 C85.566 63.338 88.221 87.811 81.539 111.332 C81.222 112.51 80.905 113.688 80.578 114.902 C74.403 135.53 62.348 153.884 47.539 169.332 C46.782 170.152 46.026 170.972 45.246 171.816 C35.602 181.948 25.466 189.009 12.383 193.863 C-1.961 199.22 -25.652 209.957 -32.461 224.332 C-32.131 224.992 -31.801 225.652 -31.461 226.332 C-31.041 226.048 -31.041 226.048 -28.918 224.609 C-14.645 215.304 0.718 210.858 17.359 207.81 C46.926 202.206 73.55 182.888 90.539 158.332 C107.284 133.214 114.379 105.492 109.977 75.5 C106.627 59.762 99.934 46.23 86.338 37.203 C80.846 33.736 76.137 31.332 69.539 31.332 Z M116.539 80.332 C116.55 81.016 116.56 81.7 116.571 82.405 C117.096 121.927 106.063 153.047 78.18 181.762 C58.686 200.143 35.642 209.933 9.694 214.89 C-7.11 218.145 -25.658 225.192 -37.293 238.414 C-38.461 240.332 -38.461 240.332 -38.461 243.332 C-34.862 241.988 -31.496 240.345 -28.094 238.565 C-12.956 230.684 1.997 226.442 19.039 225.457 C45.283 223.653 69.468 215.849 89.539 198.332 C90.371 197.61 91.202 196.888 92.059 196.145 C94.586 193.908 97.069 191.632 99.539 189.332 C100.291 188.646 101.042 187.96 101.816 187.254 C120.842 169.198 135.98 141.149 136.852 114.77 C136.661 103.273 132.271 94.584 124.539 86.332 C123.951 85.689 123.363 85.046 122.758 84.383 C121.414 82.97 119.985 81.64 118.539 80.332 C117.879 80.332 117.219 80.332 116.539 80.332 Z M140.539 132.332 C140.147 133.57 139.755 134.807 139.352 136.082 C133.892 152.31 126.377 167.053 115.539 180.332 C115.075 180.903 114.61 181.475 114.131 182.063 C94.772 205.724 66.837 225.85 35.539 229.332 C33.247 229.425 30.956 229.476 28.662 229.521 C5.253 230.07 -20.078 236.01 -38.098 251.719 C-39.461 253.332 -39.461 253.332 -39.461 256.332 C-38.306 255.92 -37.151 255.507 -35.961 255.082 C-17.67 249.061 -0.008 247.353 19.164 246.832 C61.867 245.67 97.999 231.446 127.789 200.02 C138.724 187.535 149.334 172.212 149.57 155.062 C148.982 146.893 146.8 137.858 140.539 132.332 Z M146.539 184.332 C146.303 184.665 146.303 184.665 145.105 186.352 C121.717 218.949 89.39 242.921 49.289 250.082 C39.14 251.722 28.87 251.632 18.618 251.811 C8.26 252.006 -1.831 252.561 -12.086 254.145 C-12.594 254.221 -12.594 254.221 -15.166 254.609 C-21.656 255.713 -27.454 257.65 -33.461 260.332 C-31.694 264.166 -31.694 264.166 -29.594 265.664 C-26.912 266.504 -25.902 266.094 -23.336 265.02 C-18.328 263.185 -13.775 262.57 -8.461 262.332 C-7.356 262.279 -6.251 262.226 -5.113 262.172 C4.323 261.947 13.424 262.906 22.762 264.265 C33.498 265.778 43.808 265.593 54.539 264.145 C55.525 264.012 56.51 263.88 57.525 263.743 C84.663 259.868 110.547 250.292 131.539 232.332 C132.382 231.626 133.225 230.919 134.094 230.191 C141.179 223.75 146.565 214.787 148.539 205.332 C148.659 202.487 148.724 199.677 148.727 196.832 C148.739 196.073 148.751 195.314 148.764 194.531 C148.774 190.655 148.745 187.611 146.539 184.332 Z M-127.461 231.332 C-127.461 232.322 -127.461 233.312 -127.461 234.332 C-125.406 236.023 -125.406 236.023 -122.586 237.895 C-104.757 250.489 -93.278 268.782 -89.461 290.332 C-86.278 311.905 -93.111 330.852 -105.82 348.219 C-106.362 348.916 -106.903 349.614 -107.461 350.332 C-108.094 351.166 -108.727 352 -109.379 352.859 C-114.284 358.684 -120.699 362.941 -127.148 366.895 C-142.384 376.481 -148.424 391.423 -152.461 408.332 C-153.45 413.11 -153.653 417.779 -153.648 422.645 C-153.648 423.48 -153.648 424.316 -153.648 425.178 C-153.497 443.226 -152.041 461.362 -150.461 479.332 C-149.801 479.332 -149.141 479.332 -148.461 479.332 C-148.458 479.045 -148.458 479.045 -148.443 477.591 C-148.379 471.555 -148.294 465.519 -148.198 459.483 C-148.165 457.237 -148.137 454.991 -148.115 452.745 C-148.081 449.498 -148.028 446.251 -147.973 443.004 C-147.969 442.51 -147.969 442.51 -147.953 440.01 C-147.536 419.781 -138.652 403.768 -125.461 389.015 C-123.195 386.466 -121.552 384.604 -120.461 381.332 C-119.148 380.626 -117.811 379.963 -116.461 379.332 C-115.307 378.345 -114.183 377.32 -113.086 376.27 C-109.532 373.06 -105.722 370.566 -101.648 368.082 C-83.498 356.757 -71.863 338.416 -66.648 317.832 C-61.685 293.368 -66.371 270.605 -80.172 249.746 C-82.959 245.871 -82.959 245.871 -84.461 244.332 C-85.121 244.332 -85.781 244.332 -86.461 244.332 C-86.717 243.735 -86.974 243.138 -87.238 242.523 C-90.552 236.585 -97.165 233.671 -103.445 231.855 C-104.11 231.683 -104.776 231.51 -105.461 231.332 C-106.265 231.105 -107.07 230.878 -107.898 230.645 C-114.471 229.843 -120.956 230.201 -127.461 231.332 Z M-82.461 238.332 C-82.109 238.782 -81.757 239.232 -81.395 239.695 C-69.544 255.135 -60.257 272.465 -59.461 292.332 C-59.409 293.341 -59.358 294.351 -59.305 295.391 C-58.622 320.433 -67.695 342.696 -84.461 361.332 C-90.343 367.528 -97.268 371.971 -104.521 376.388 C-108.644 378.943 -111.663 381.256 -114.461 385.332 C-96.368 382.228 -83.741 376.017 -70.461 363.332 C-69.858 362.804 -69.254 362.275 -68.633 361.73 C-54.215 348.592 -45.407 328.08 -41.461 309.332 C-41.386 308.978 -41.386 308.978 -41.004 307.184 C-40.682 305.217 -40.544 303.325 -40.461 301.332 C-40.435 300.759 -40.435 300.759 -40.305 297.859 C-39.924 285.062 -41.07 271.689 -47.461 260.332 C-48.018 259.342 -48.575 258.352 -49.148 257.332 C-56.715 247.515 -65.226 240.971 -77.461 238.332 C-79.127 238.306 -80.795 238.301 -82.461 238.332 Z M120.852 246.895 C91.219 265.264 55.723 273.768 21.039 268.832 C6.239 266.869 -9.022 265.519 -23.461 270.332 C-22.801 271.982 -22.141 273.632 -21.461 275.332 C-20.842 275.364 -20.842 275.364 -17.711 275.523 C-6.261 276.275 4.162 278.283 15.102 281.768 C41.914 290.305 70.159 286.157 94.949 273.343 C96.819 272.351 98.68 271.345 100.539 270.332 C101.488 269.827 102.437 269.321 103.414 268.801 C112.299 263.803 124.179 255.402 127.191 245.102 C127.306 244.518 127.421 243.934 127.539 243.332 C125.308 243.332 122.612 245.776 120.852 246.895 Z M-38.461 267.332 C-38.244 268.136 -38.028 268.941 -37.805 269.77 C-33.682 287.178 -33.725 305.331 -39.461 322.332 C-39.812 323.421 -40.162 324.511 -40.523 325.633 C-45.753 340.504 -54.239 353.447 -64.461 365.332 C-65.116 366.102 -65.771 366.871 -66.445 367.664 C-76.126 378.152 -89.086 384.268 -102.607 388.077 C-124.187 394.176 -124.187 394.176 -130.461 402.332 C-131.158 403.986 -131.829 405.652 -132.461 407.332 C-131.673 406.934 -130.886 406.535 -130.074 406.125 C-119.122 400.798 -108.866 398.49 -96.836 397.332 C-77.02 395.393 -61.933 387.841 -47.461 374.332 C-46.798 373.761 -46.136 373.19 -45.453 372.602 C-30.46 359.038 -19.507 335.179 -18.334 315.169 C-18.014 305.579 -17.836 296.372 -21.461 287.332 C-21.79 286.497 -22.118 285.661 -22.457 284.801 C-25.473 278.038 -29.896 272.23 -35.461 267.332 C-36.451 267.332 -37.441 267.332 -38.461 267.332 Z M93.539 280.332 C91.141 281.164 88.822 282.058 86.477 283.02 C80.577 285.337 74.716 287.216 68.539 288.645 C67.858 288.803 67.178 288.962 66.476 289.126 C45.17 293.862 24.866 291.291 4.456 284.327 C-2.653 282.018 -8.981 281.673 -16.461 282.332 C-15.957 287.878 -15.957 287.878 -13.781 289.871 C11.348 302.302 40.932 305.464 67.789 296.645 C77.87 293.161 87.7 288.723 95.539 281.332 C95.209 281.167 95.209 281.167 93.539 280.332 Z M-12.461 297.332 C-12.461 299.642 -12.461 301.952 -12.461 304.332 C13.075 313.421 42.079 315.329 67.344 304.516 C69.539 303.332 69.539 303.332 70.539 301.332 C69.367 301.609 68.196 301.886 66.988 302.172 C58.531 304.137 50.249 306.04 41.539 306.332 C41.014 306.352 41.014 306.352 38.359 306.453 C22.9 306.751 6.277 305.333 -7.723 298.176 C-9.461 297.332 -9.461 297.332 -12.461 297.332 Z M-12.461 312.332 C-12.608 313.446 -12.755 314.56 -12.906 315.707 C-15.954 337.108 -24.185 355.949 -38.461 372.332 C-38.988 373.002 -39.515 373.673 -40.059 374.363 C-53.608 391.142 -73.954 400.257 -95.013 402.618 C-97.619 402.871 -100.227 403.106 -102.836 403.332 C-115.213 404.409 -126.399 407.643 -136.461 415.332 C-136.461 416.322 -136.461 417.312 -136.461 418.332 C-135.78 418.006 -135.1 417.68 -134.398 417.344 C-119.607 410.676 -105.243 409.916 -89.315 410.469 C-75.544 410.907 -62.473 409.255 -50.148 402.582 C-49.489 402.237 -48.831 401.892 -48.152 401.536 C-28.156 390.801 -15.151 374.968 -6.461 354.332 C-6.096 353.467 -5.731 352.602 -5.355 351.711 C-1.746 341.663 -1.947 329.02 -6.461 319.332 C-6.956 318.177 -7.451 317.022 -7.961 315.832 C-9.461 313.332 -9.461 313.332 -12.461 312.332 Z M-7.461 370.332 C-8.823 372.102 -10.15 373.899 -11.461 375.707 C-26.858 396.459 -45.669 409.78 -71.194 414.878 C-74.798 415.379 -78.18 415.377 -81.816 415.289 C-83.249 415.263 -84.682 415.239 -86.115 415.216 C-86.486 415.209 -86.486 415.209 -88.361 415.178 C-126.343 414.629 -126.343 414.629 -139.211 425.859 C-140.461 427.332 -140.461 427.332 -140.461 429.332 C-139.431 429.043 -138.401 428.755 -137.34 428.457 C-123.731 424.83 -111.554 424.233 -97.711 426.832 C-75.388 431.021 -50.529 428.722 -31.124 416.104 C-19.967 408.407 -10.982 399.061 -6.918 385.848 C-5.986 380.72 -6.244 375.52 -6.461 370.332 C-6.791 370.332 -7.121 370.332 -7.461 370.332 Z M-23.586 416.832 C-42.803 431.524 -67.799 436.418 -91.461 433.332 C-94.12 432.869 -96.758 432.324 -99.398 431.77 C-111.242 429.307 -124.112 428.542 -135.461 433.332 C-135.461 433.662 -135.461 433.992 -135.461 434.332 C-134.839 434.387 -134.839 434.387 -131.691 434.664 C-121.318 435.629 -111.846 437.06 -101.992 440.566 C-81.026 447.987 -58.631 448.422 -38.086 439.145 C-30.047 434.725 -22.108 427.935 -18.461 419.332 C-18.148 416.332 -18.148 416.332 -18.461 414.332 C-21.078 414.332 -21.599 415.157 -23.586 416.832 Z M-140.461 442.332 C-140.461 442.662 -140.461 442.992 -140.461 443.332 C-139.422 443.563 -138.383 443.794 -137.312 444.031 C-128.065 446.161 -120.102 448.758 -112.02 453.879 C-99.192 461.989 -84.55 463.978 -69.711 461.27 C-62.105 459.518 -55 456.627 -48.461 452.332 C-47.288 450.219 -47.288 450.219 -46.461 448.332 C-47.045 448.423 -47.629 448.514 -48.23 448.607 C-50.931 449.023 -53.633 449.428 -56.336 449.832 C-57.254 449.975 -58.172 450.118 -59.117 450.266 C-68.273 451.62 -76.953 451.743 -86.086 450.207 C-86.469 450.144 -86.469 450.144 -88.41 449.823 C-94.549 448.706 -100.128 446.775 -105.906 444.468 C-116.294 440.343 -129.913 437.428 -140.461 442.332 Z M-135.461 449.332 C-127.594 459.477 -116.25 466.946 -103.461 469.332 C-101.422 469.448 -99.379 469.507 -97.336 469.52 C-96.809 469.527 -96.809 469.527 -94.141 469.562 C-91.461 469.332 -91.461 469.332 -89.461 467.332 C-90.381 467.124 -91.302 466.917 -92.25 466.703 C-103.899 463.868 -113.696 459.368 -123.898 452.957 C-127.858 450.496 -130.816 449.534 -135.461 449.332 Z " fill="#000000" transform="translate(880.4609375,138.66796875)"/>
<path d="M0 0 C3.245 -0.369 4.568 -0.342 7.176 1.723 C7.881 2.495 8.586 3.267 9.312 4.062 C12.708 7.654 16.164 10.976 19.91 14.195 C24.877 18.484 29.708 22.93 34.578 27.328 C39.681 31.93 44.808 36.498 50 41 C50.277 41.243 50.277 41.243 51.677 42.47 C53.572 44.13 55.473 45.784 57.375 47.438 C57.995 47.983 58.614 48.528 59.253 49.089 C63.773 53 63.773 53 66 53 C67.082 51.611 67.082 51.611 68.242 49.676 C68.669 48.976 69.096 48.277 69.535 47.557 C69.977 46.816 70.419 46.076 70.875 45.312 C73.689 40.641 76.461 36.173 80 32 C85.062 32.374 87.681 35.098 91.125 38.5 C92.286 39.608 93.448 40.713 94.613 41.816 C95.188 42.362 95.762 42.907 96.354 43.469 C99.447 46.346 102.731 48.972 106.027 51.609 C108.212 53.366 110.364 55.143 112.504 56.953 C123.107 65.854 134.352 73.535 146 81 C146.63 81.406 147.261 81.812 147.91 82.23 C190.907 109.776 239.3 127.606 290 134 C290.747 134.096 291.495 134.191 292.265 134.29 C302.013 135.356 311.831 135.244 321.625 135.25 C322.583 135.251 323.541 135.251 324.528 135.252 C339.553 135.235 354.179 134.692 369 132 C369.93 131.834 370.859 131.667 371.817 131.496 C423.641 121.896 472.977 99.055 514 66 C514.915 65.277 515.83 64.554 516.773 63.809 C525.477 56.838 533.857 49.398 541.539 41.309 C541.829 41.006 541.829 41.006 543.295 39.478 C544.411 38.306 545.513 37.123 546.599 35.925 C548.816 33.6 550.284 32.096 553.531 31.66 C557.402 33.761 559.194 37.082 561.5 40.75 C564.662 45.675 567.68 50.024 572 54 C572.422 53.603 572.844 53.206 573.278 52.798 C583.703 42.997 594.15 33.229 604.812 23.688 C609.191 19.757 613.508 15.762 617.812 11.75 C618.447 11.159 619.082 10.568 619.736 9.96 C620.04 9.675 620.04 9.675 621.582 8.234 C622.167 7.689 622.751 7.143 623.353 6.581 C624.878 5.117 626.325 3.605 627.773 2.066 C628.141 1.725 628.141 1.725 630 0 C632.812 0.188 632.812 0.188 635 1 C634.357 8.572 632.314 15.642 630.25 22.938 C629.915 24.142 629.58 25.347 629.234 26.588 C626.58 36.085 623.8 45.545 621 55 C622.145 54.823 623.29 54.647 624.469 54.465 C628.739 53.807 633.008 53.149 637.278 52.491 C639.122 52.207 640.966 51.923 642.809 51.639 C645.468 51.229 648.127 50.82 650.785 50.41 C651.194 50.347 651.194 50.347 653.261 50.028 C667.301 47.868 667.301 47.868 672.938 47.938 C673.895 47.947 674.853 47.956 675.84 47.965 C676.553 47.976 677.266 47.988 678 48 C678.777 50.23 678.777 50.23 679 53 C677.191 55.176 677.191 55.176 674.562 57.312 C671.192 60.147 667.947 62.967 664.875 66.125 C661.693 69.358 658.363 72.339 654.922 75.293 C653.09 76.92 651.389 78.613 649.688 80.375 C646.034 84.095 642.016 87.282 637.957 90.547 C634.873 93.105 631.931 95.77 629 98.5 C624.47 102.711 619.797 106.676 614.98 110.555 C611.427 113.47 607.963 116.478 604.5 119.5 C599.223 124.103 593.891 128.605 588.43 132.988 C585.463 135.445 582.685 138.074 579.949 140.785 C576.968 142.643 575.444 142.742 572 142 C569.605 139.657 567.903 136.951 566.125 134.125 C565.627 133.379 565.13 132.632 564.617 131.863 C561 126.348 561 126.348 561 124 C556.503 126.351 552.535 129.044 548.5 132.125 C468.252 192.853 364.662 214.443 265.947 201.48 C240.029 197.852 214.745 191.466 190 183 C189.236 182.743 188.471 182.486 187.684 182.222 C149.075 169.145 112.766 149.095 80 125 C79.636 125.545 79.273 126.091 78.898 126.652 C77.842 128.237 76.78 129.819 75.715 131.398 C74.587 133.109 73.494 134.844 72.441 136.602 C71.945 137.414 71.449 138.226 70.938 139.062 C70.493 139.817 70.048 140.571 69.59 141.348 C68 143 68 143 65.672 143.527 C61.946 142.792 60.143 141.009 57.312 138.5 C56.242 137.568 55.17 136.637 54.098 135.707 C53.834 135.475 53.834 135.475 52.5 134.303 C50.465 132.536 48.365 130.859 46.25 129.188 C36.245 121.222 26.313 113.173 16.578 104.879 C13.294 102.084 9.976 99.339 6.625 96.625 C-3.102 88.701 -12.517 80.396 -21.812 71.973 C-23.836 70.148 -25.88 68.35 -27.938 66.562 C-28.567 66.011 -29.196 65.459 -29.844 64.891 C-31.526 63.416 -33.215 61.949 -34.906 60.484 C-35.917 59.594 -36.928 58.704 -37.938 57.812 C-38.875 56.994 -39.812 56.175 -40.777 55.332 C-42.925 53.079 -43.797 52.064 -44 49 C-43.67 48.34 -43.34 47.68 -43 47 C-30.765 47.597 -18.738 49.322 -6.625 51.062 C-4.617 51.347 -2.609 51.632 -0.602 51.916 C4.266 52.606 9.133 53.301 14 54 C13.759 53.171 13.518 52.342 13.269 51.488 C12.93 50.322 12.591 49.157 12.242 47.957 C12.058 47.325 11.875 46.693 11.685 46.042 C10.669 42.548 9.655 39.054 8.643 35.56 C8.231 34.136 7.819 32.713 7.406 31.289 C7.201 30.581 6.996 29.873 6.785 29.144 C5.546 24.871 4.294 20.602 3.031 16.336 C2.479 14.453 1.927 12.57 1.375 10.688 C1.116 9.824 0.856 8.961 0.589 8.072 C-1.113 2.226 -1.113 2.226 0 0 Z M10 15 C11.885 24.567 14.934 33.798 17.837 43.094 C18.524 45.297 19.204 47.502 19.883 49.707 C19.989 50.044 19.989 50.044 20.527 51.746 C21.537 55.037 22 57.511 22 61 C16.395 60.309 10.79 59.615 5.185 58.919 C3.279 58.682 1.373 58.447 -0.533 58.212 C-3.276 57.873 -6.019 57.533 -8.762 57.191 C-9.186 57.139 -9.186 57.139 -11.335 56.876 C-14.53 56.476 -17.681 56.064 -20.839 55.429 C-23.9 54.821 -26.89 54.939 -30 55 C-22.669 64.114 -13.754 71.464 -4.684 78.785 C-2.053 80.956 0.479 83.202 3 85.5 C7.242 89.361 11.62 93.005 16.078 96.613 C19.274 99.224 22.421 101.887 25.562 104.562 C30.96 109.148 36.435 113.619 42 118 C42.591 118.465 43.182 118.931 43.791 119.41 C47.857 122.611 51.927 125.807 56 129 C56.66 128.67 57.32 128.34 58 128 C57.622 127.188 57.244 126.377 56.854 125.541 C55.439 122.501 54.024 119.462 52.611 116.422 C52.001 115.111 51.391 113.801 50.781 112.491 C49.898 110.597 49.017 108.703 48.137 106.809 C47.872 106.24 47.872 106.24 46.534 103.365 C46.028 102.255 45.522 101.144 45 100 C44.852 99.702 44.852 99.702 44.102 98.195 C42.823 95.509 41.987 93.423 42.076 90.426 C43.257 87.326 44.871 84.898 46.781 82.184 C47.155 81.645 47.528 81.107 47.913 80.552 C49.101 78.842 50.299 77.139 51.5 75.438 C52.7 73.732 53.897 72.025 55.087 70.312 C56.166 68.76 57.253 67.215 58.342 65.67 C59.795 63.331 60.569 61.686 61 59 C53.465 51.852 45.941 44.832 37.82 38.348 C34.369 35.474 31.09 32.444 27.812 29.375 C27.216 28.816 26.619 28.258 26.004 27.682 C24.857 26.608 23.71 25.533 22.562 24.458 C20.499 22.533 18.417 20.63 16.312 18.75 C15.731 18.229 15.15 17.708 14.551 17.172 C13 16 13 16 10 15 Z M619 19 C619 19.66 619 20.32 619 21 C618.407 21.264 617.814 21.529 617.203 21.801 C614.92 23.044 613.526 24.304 611.75 26.188 C609.372 28.636 606.962 30.961 604.375 33.188 C600.139 36.84 596.039 40.63 591.944 44.438 C587.677 48.398 583.33 52.256 578.926 56.062 C577.039 57.96 576.024 59.547 575 62 C575.69 62.932 576.379 63.864 577.09 64.824 C579.573 68.185 582.032 71.563 584.49 74.943 C585.897 76.859 587.329 78.753 588.77 80.645 C589.597 81.762 590.424 82.881 591.25 84 C591.998 84.99 592.745 85.98 593.516 87 C595.475 90.96 595.116 92.745 594 97 C592.86 100.166 591.548 103.236 590.188 106.312 C589.463 107.996 588.739 109.68 588.016 111.363 C587.344 112.909 586.673 114.455 586 116 C585.136 117.996 584.279 119.995 583.438 122 C583.127 122.722 582.816 123.444 582.496 124.188 C582 126 582 126 583 129 C583.374 128.693 583.374 128.693 585.266 127.137 C585.758 126.733 585.758 126.733 588.25 124.688 C589.225 123.887 590.199 123.086 591.203 122.262 C592.883 120.903 594.595 119.58 596.359 118.332 C596.901 117.892 597.442 117.453 598 117 C598 116.34 598 115.68 598 115 C598.523 114.785 599.047 114.569 599.586 114.348 C602.956 112.466 605.733 109.966 608.625 107.438 C609.247 106.9 609.868 106.362 610.509 105.807 C614.927 101.972 619.269 98.057 623.598 94.121 C626.049 91.957 628.569 89.914 631.125 87.875 C637.386 82.809 643.188 77.287 649.027 71.746 C651.554 69.351 654.102 66.987 656.691 64.66 C657.253 64.155 657.814 63.649 658.393 63.128 C659.904 61.773 661.421 60.424 662.938 59.074 C665 57 665 57 665 55 C664.447 55.075 663.895 55.15 663.325 55.228 C657.567 56.01 651.808 56.788 646.049 57.563 C643.9 57.853 641.752 58.144 639.603 58.437 C636.513 58.857 633.423 59.272 630.332 59.688 C629.374 59.819 628.415 59.95 627.427 60.085 C626.977 60.145 626.977 60.145 624.698 60.449 C624.304 60.503 624.304 60.503 622.31 60.772 C619.859 61.014 617.461 61.038 615 61 C613.287 56.878 614.819 53.245 616.055 49.199 C616.276 48.445 616.497 47.69 616.724 46.913 C617.432 44.501 618.153 42.094 618.875 39.688 C619.589 37.291 620.299 34.894 621.004 32.495 C621.443 31.004 621.887 29.514 622.336 28.027 C623.62 23.687 624.466 19.495 625 15 C622.684 15 620.634 17.575 619 19 Z M82 41 C80.336 42.987 80.336 42.987 78.375 45.754 C77.661 46.761 76.947 47.768 76.211 48.805 C72.747 53.81 69.357 58.86 66 63.938 C64.667 65.947 63.333 67.956 62 69.965 C61.35 70.951 60.701 71.937 60.031 72.953 C58.615 75.078 57.175 77.188 55.719 79.286 C55.353 79.817 55.353 79.817 53.5 82.504 C52.83 83.462 52.159 84.421 51.469 85.408 C50 88 50 88 50 92 C52.133 94.41 52.133 94.41 55.125 97.062 C55.666 97.543 56.208 98.023 56.765 98.518 C62.963 103.953 69.43 109.027 76 114 C76.366 114.278 76.366 114.278 78.217 115.686 C88.14 123.202 98.182 130.308 108.859 136.711 C111.208 138.125 113.544 139.562 115.879 141 C126.021 147.212 136.235 152.946 147 158 C147.795 158.378 148.591 158.757 149.41 159.146 C231.169 197.904 324.174 209.719 434 182 C434.898 181.726 435.797 181.452 436.722 181.169 C473.171 169.922 507.769 152.865 539 131 C539.716 130.5 540.433 130 541.171 129.485 C554.086 120.428 566.025 110.686 577.699 100.082 C581.094 97.01 584.544 94.002 588 91 C585.144 85.82 582.003 80.995 578.562 76.188 C578.305 75.824 578.305 75.824 577 73.987 C574.187 70.033 571.35 66.098 568.5 62.172 C567.926 61.38 567.351 60.588 566.76 59.773 C565.66 58.26 564.558 56.749 563.453 55.241 C560.087 50.616 556.965 45.893 554 41 C550.784 42.526 548.712 44.098 546.25 46.688 C542.338 50.692 538.25 54.36 534 58 C532.981 58.894 531.963 59.788 530.945 60.684 C480.659 104.686 416.864 134.736 350 141 C348.858 141.111 347.716 141.222 346.539 141.336 C263.295 148.135 175.522 118.156 111.695 64.641 C110.108 63.289 108.53 61.927 106.957 60.559 C104.098 58.085 101.189 55.691 98.25 53.312 C93.954 49.828 89.833 46.195 85.777 42.434 C84 41 84 41 82 41 Z M584 102 C583.566 102.404 583.566 102.404 581.367 104.449 C580.203 105.529 579.039 106.608 577.875 107.688 C577.305 108.218 576.735 108.748 576.148 109.295 C572.524 112.652 568.822 115.869 565 119 C566.98 122.63 568.96 126.26 571 130 C572.32 130 573.64 130 575 130 C578.63 121.09 582.26 112.18 586 103 C585.34 102.67 584.68 102.34 584 102 Z M53 103 C54.795 109.045 57.493 114.662 60.125 120.375 C60.593 121.397 61.061 122.419 61.543 123.473 C62.693 125.983 63.845 128.492 65 131 C65.99 131 66.98 131 68 131 C69.605 129.137 69.605 129.137 71.188 126.688 C71.717 125.887 72.247 125.086 72.793 124.262 C74 122 74 122 74 119 C72.037 117.261 70.112 115.724 68 114.188 C67.705 113.967 67.705 113.967 66.212 112.852 C65.029 111.97 63.844 111.091 62.655 110.217 C60.485 108.621 58.337 106.998 56.188 105.375 C55.136 104.591 54.084 103.808 53 103 Z " fill="#000000" transform="translate(355,554)"/>
<path d="M0 0 C2.625 0.938 2.625 0.938 5 2 C5 2.66 5 3.32 5 4 C5.289 4.134 5.289 4.134 6.75 4.812 C9.033 6.017 10.974 7.408 13 9 C12.67 10.65 12.34 12.3 12 14 C8.906 14.994 7.097 14.878 4 14 C2.229 16.25 0.458 18.5 -1.312 20.75 C-1.812 21.384 -2.312 22.018 -2.826 22.672 C-5.252 25.756 -7.666 28.845 -10 32 C-11.65 31.67 -13.3 31.34 -15 31 C-14.41 27.955 -13.541 26.103 -11.566 23.723 C-11.082 23.126 -10.598 22.53 -10.1 21.916 C-9.592 21.304 -9.085 20.693 -8.562 20.062 C-2.505 12.748 -2.505 12.748 -1 8 C-1.66 7.34 -2.32 6.68 -3 6 C-2.75 3.438 -2.75 3.438 -2 1 C-1.34 0.67 -0.68 0.34 0 0 Z " fill="#000000" transform="translate(446,623)"/>
<path d="M0 0 C4.705 0.329 7.652 2.694 11.188 5.562 C11.75 6.007 12.312 6.452 12.891 6.91 C14.601 8.265 16.301 9.632 18 11 C19.013 11.806 20.026 12.611 21.07 13.441 C23.387 15.286 25.697 17.139 28 19 C27.67 20.32 27.34 21.64 27 23 C26.374 22.905 25.747 22.809 25.102 22.711 C24.284 22.6 23.467 22.489 22.625 22.375 C21.813 22.259 21.001 22.143 20.164 22.023 C19.45 22.016 18.736 22.008 18 22 C16 24 16 24 15.805 25.945 C15.828 26.665 15.851 27.384 15.875 28.125 C15.916 29.404 15.957 30.683 16 32 C15.34 32.165 15.34 32.165 12 33 C11.492 31.984 10.984 30.968 10.461 29.922 C10.296 29.591 10.296 29.591 9.459 27.919 C8.733 26.466 8.008 25.012 7.285 23.558 C5.591 20.154 3.886 16.761 2.098 13.406 C1.55 12.365 1.002 11.323 0.438 10.25 C0.189 9.789 0.189 9.789 -1.066 7.453 C-2.099 4.739 -2.092 3.65 -1 1 C-0.67 0.67 -0.34 0.34 0 0 Z M7 10 C8.477 15.662 8.477 15.662 11.125 17.375 C11.744 17.581 12.362 17.788 13 18 C13 16.68 13 15.36 13 14 C10 11.75 10 11.75 7 10 Z " fill="#000000" transform="translate(888,631)"/>
<path d="M0 0 C1.938 0.375 1.938 0.375 4 1 C4.33 1.66 4.66 2.32 5 3 C4.021 4.762 3.036 6.522 1.992 8.246 C0.926 10.131 0.342 11.861 0 14 C0.99 14.165 0.99 14.165 6 15 C7.65 12.69 9.3 10.38 11 8 C11.825 8.165 11.825 8.165 16 9 C15.361 12.657 13.781 15.093 11.691 18.133 C11.027 19.103 10.362 20.074 9.678 21.074 C8.98 22.081 8.282 23.088 7.562 24.125 C6.868 25.139 6.174 26.154 5.459 27.199 C0.301 34.699 0.301 34.699 -2 37 C-4.125 36.625 -4.125 36.625 -6 36 C-5.465 31.456 -3.523 28.744 -1 25 C-1 24.01 -1 23.02 -1 22 C-1.825 21.67 -1.825 21.67 -6 20 C-8.31 22.97 -10.62 25.94 -13 29 C-14.32 28.67 -15.64 28.34 -17 28 C-16.458 23.731 -15.048 21.325 -12.438 17.938 C-8.044 12.106 -4.006 6.104 0 0 Z " fill="#000000" transform="translate(464,638)"/>
<path d="M0 0 C0.99 0.33 1.98 0.66 3 1 C2.997 1.381 2.997 1.381 2.98 3.309 C3.34 8.744 3.835 11.911 7.922 15.73 C11.152 18.046 14.546 20.038 18 22 C18.99 22.66 19.98 23.32 21 24 C21 25.32 21 26.64 21 28 C19 28.875 19 28.875 16 29 C13.758 27.607 11.79 26.044 9.77 24.348 C8 23 8 23 6 23 C6.665 27.389 8.188 30.981 10 35 C8.68 35.66 7.36 36.32 6 37 C1.446 31.404 -2.793 25.591 -6.938 19.688 C-7.434 18.994 -7.931 18.3 -8.443 17.586 C-8.904 16.922 -9.365 16.258 -9.84 15.574 C-10.256 14.982 -10.672 14.39 -11.101 13.78 C-12 12 -12 12 -12 8 C-10.68 7.67 -9.36 7.34 -8 7 C-7.175 8.155 -7.175 8.155 -3 14 C-2.951 13.073 -2.902 12.146 -2.852 11.191 C-2.777 9.994 -2.702 8.796 -2.625 7.562 C-2.555 6.368 -2.486 5.173 -2.414 3.941 C-2.277 2.971 -2.141 2 -2 1 C-1.34 0.67 -0.68 0.34 0 0 Z " fill="#000000" transform="translate(874,642)"/>
<path d="M0 0 C2.062 0.438 2.062 0.438 4 1 C3.469 5.555 2.32 8.672 -0.055 12.582 C-0.67 13.596 -1.284 14.61 -1.918 15.654 C-2.564 16.697 -3.21 17.739 -3.875 18.812 C-4.513 19.874 -5.151 20.936 -5.809 22.029 C-10.615 29.872 -10.615 29.872 -14 31 C-14.66 30.67 -15.32 30.34 -16 30 C-15.473 25.412 -14.305 22.331 -11.875 18.418 C-11.251 17.404 -10.627 16.39 -9.984 15.346 C-9.33 14.303 -8.675 13.261 -8 12.188 C-7.345 11.126 -6.69 10.064 -6.016 8.971 C-1.208 1.208 -1.208 1.208 0 0 Z " fill="#000000" transform="translate(486,652)"/>
<path d="M0 0 C2.724 0.347 3.755 0.696 5.508 2.87 C5.971 3.671 6.433 4.472 6.91 5.297 C7.425 6.173 7.94 7.05 8.471 7.953 C8.996 8.876 9.521 9.799 10.062 10.75 C10.592 11.658 11.121 12.565 11.666 13.5 C12.657 15.201 13.643 16.905 14.621 18.612 C15.606 20.317 16.635 21.997 17.693 23.657 C19 26 19 26 18.688 28.312 C18.461 28.869 18.234 29.426 18 30 C15.571 29.633 14.317 29.352 12.648 27.496 C12.228 26.817 11.808 26.137 11.375 25.438 C11.126 25.038 11.126 25.038 9.867 23.016 C9.251 22.02 8.635 21.025 8 20 C7.11 18.659 6.216 17.321 5.32 15.984 C4.379 14.553 3.439 13.12 2.5 11.688 C2.03 10.994 1.56 10.3 1.076 9.586 C-0.219 7.574 -0.219 7.574 -2 4 C-1.281 1.52 -1.281 1.52 0 0 Z " fill="#000000" transform="translate(853,656)"/>
<path d="M0 0 C0.825 0.165 0.825 0.165 5 1 C4.443 4.344 3.648 7.033 2 10 C4.436 9.053 6.749 8.149 9 6.812 C11.643 5.739 13.302 6.251 16 7 C16 7.99 16 8.98 16 10 C14.601 10.664 13.18 11.28 11.75 11.875 C8.838 13.636 7.318 15.094 6.181 18.332 C4.675 24.474 3.768 30.727 3 37 C1.35 36.67 -0.3 36.34 -2 36 C-2 31.38 -2 26.76 -2 22 C-6.106 25.285 -7.713 26.667 -10 31 C-11.938 30.625 -11.938 30.625 -14 30 C-14.33 29.34 -14.66 28.68 -15 28 C-14.06 25.741 -14.06 25.741 -12.578 22.949 C-12.047 21.941 -11.516 20.932 -10.969 19.893 C-10.402 18.835 -9.834 17.777 -9.25 16.688 C-8.698 15.641 -8.147 14.595 -7.578 13.518 C-5.155 8.942 -2.694 4.423 0 0 Z " fill="#000000" transform="translate(496,659)"/>
<path d="M0 0 C7.113 3.968 11.401 11.713 13.699 19.312 C14.254 22.461 14.091 24.75 13 27.75 C10.219 30.879 7.857 32.308 4 34 C1.007 33.174 0.083 32.123 -1.663 29.542 C-3.392 26.242 -5.119 22.943 -6.812 19.625 C-7.423 18.475 -8.033 17.325 -8.662 16.141 C-9.234 15.035 -9.806 13.929 -10.395 12.789 C-10.919 11.775 -11.443 10.762 -11.984 9.717 C-13 7 -13 7 -12.831 4.748 C-10.61 0.077 -4.601 -0.845 0 0 Z M-5 7 C-4.477 11.903 -2.999 15.184 -0.438 19.375 C0.203 20.435 0.844 21.494 1.504 22.586 C1.998 23.383 2.491 24.179 3 25 C4.32 24.67 5.64 24.34 7 24 C8.173 21.142 8.01 20.027 6.961 17.055 C6.438 16.005 5.914 14.956 5.375 13.875 C4.867 12.821 4.359 11.766 3.836 10.68 C1.566 7.366 -1.036 5.018 -5 7 Z " fill="#000000" transform="translate(844,665)"/>
<path d="M0 0 C1.32 0 2.64 0 4 0 C3.525 4.116 2.979 7.364 1 11 C1.58 10.555 2.16 10.111 2.758 9.652 C9.218 4.973 9.218 4.973 13.562 5.125 C14.367 5.414 15.171 5.702 16 6 C14.843 9.471 13.823 10.1 10.531 11.969 C7.187 14.295 6.376 16.096 5.66 20.082 C5.429 21.989 5.231 23.899 5.062 25.812 C4.951 26.792 4.839 27.771 4.725 28.779 C4.455 31.185 4.214 33.589 4 36 C3.505 36.165 3.505 36.165 1 37 C0.34 36.67 -0.32 36.34 -1 36 C-1 31.38 -1 26.76 -1 22 C-5.5 24.25 -5.5 24.25 -7.25 27.625 C-7.827 28.739 -8.405 29.852 -9 31 C-10.32 30.67 -11.64 30.34 -13 30 C-12.44 25.872 -11.515 22.457 -9.785 18.672 C-9.346 17.708 -8.907 16.743 -8.455 15.75 C-7.996 14.76 -7.536 13.77 -7.062 12.75 C-6.607 11.745 -6.151 10.739 -5.682 9.703 C-2.27 2.27 -2.27 2.27 0 0 Z " fill="#000000" transform="translate(519,671)"/>
<path d="M0 0 C3.081 0.237 4.588 0.591 6.805 2.794 C7.346 3.559 7.888 4.325 8.445 5.113 C9.047 5.949 9.649 6.785 10.27 7.646 C10.882 8.526 11.494 9.406 12.125 10.312 C12.435 10.747 12.435 10.747 14.004 12.943 C15.16 14.564 16.311 16.188 17.454 17.818 C19 20 19 20 20.699 22.032 C22 24 22 24 22 28 C18.625 27.453 16.918 26.945 14 25 C12.125 25.562 12.125 25.562 10 27 C8.75 30.625 8.75 30.625 8 34 C6.68 33.67 5.36 33.34 4 33 C2.963 28.608 1.948 24.211 0.938 19.812 C0.643 18.567 0.348 17.321 0.045 16.037 C-0.229 14.835 -0.503 13.633 -0.785 12.395 C-1.042 11.29 -1.298 10.185 -1.563 9.046 C-2.001 5.992 -1.868 3.942 -1 1 C-0.67 0.67 -0.34 0.34 0 0 Z M5 12 C5.33 14.31 5.66 16.62 6 19 C6.99 19.33 7.98 19.66 9 20 C9.66 19.34 10.32 18.68 11 18 C9.726 15.962 8.389 13.961 7 12 C6.34 12 5.68 12 5 12 Z " fill="#000000" transform="translate(817,676)"/>
<path d="M0 0 C0.825 0.165 0.825 0.165 5 1 C5.989 4.881 5.927 7.873 5.293 11.816 C5.206 12.363 5.206 12.363 4.764 15.131 C4.669 15.697 4.669 15.697 4.188 18.562 C4.009 19.699 3.83 20.835 3.646 22.006 C2.141 31.217 2.141 31.217 0 35 C-1.938 34.375 -1.938 34.375 -4 33 C-4.75 29.875 -4.75 29.875 -5 27 C-7.312 26.312 -7.312 26.312 -10 26 C-10.495 26.495 -10.99 26.99 -11.5 27.5 C-11.995 27.995 -12.49 28.49 -13 29 C-15.688 28.688 -15.688 28.688 -18 28 C-16.354 22.869 -13.25 18.876 -10.125 14.562 C-9.064 13.085 -8.004 11.607 -6.945 10.129 C-6.443 9.429 -5.94 8.729 -5.423 8.008 C-3.557 5.375 -1.77 2.698 0 0 Z M-2 12 C-3.32 14.31 -4.64 16.62 -6 19 C-4.68 19.33 -3.36 19.66 -2 20 C-0.646 17.291 -0.935 14.991 -1 12 C-1.33 12 -1.66 12 -2 12 Z " fill="#000000" transform="translate(546,683)"/>
<path d="M0 0 C3 1 3 1 4.059 3.117 C4.372 4.027 4.685 4.937 5.008 5.875 C5.355 6.86 5.701 7.845 6.059 8.859 C6.411 9.896 6.762 10.932 7.125 12 C7.834 14.042 8.545 16.084 9.258 18.125 C9.569 19.035 9.879 19.945 10.2 20.883 C11 23 11 23 12 24 C14.064 23.524 16.065 22.898 18.09 22.277 C18.72 22.186 19.351 22.094 20 22 C20.66 22.66 21.32 23.32 22 24 C21.93 26.477 21.93 26.477 21 29 C18.82 30.398 18.82 30.398 16.125 31.375 C15.241 31.713 14.356 32.05 13.445 32.398 C11 33 11 33 8 32 C6.741 29.579 6.741 29.579 5.52 26.391 C5.078 25.243 4.637 24.096 4.182 22.914 C3.73 21.705 3.278 20.496 2.812 19.25 C2.349 18.056 1.886 16.863 1.408 15.633 C-2.299 5.87 -2.299 5.87 -2 1 C-1.34 0.67 -0.68 0.34 0 0 Z " fill="#000000" transform="translate(795,685)"/>
<path d="M0 0 C1.32 0 2.64 0 4 0 C5.41 6.738 4.666 13.19 4 20 C4.296 19.459 4.296 19.459 5.793 16.719 C6.59 15.312 7.388 13.906 8.188 12.5 C8.575 11.785 8.962 11.069 9.361 10.332 C10.474 8.402 11.515 6.662 13 5 C15.801 4.531 15.801 4.531 18 5 C17.059 11.528 13.418 16.649 10.125 22.25 C9.487 23.364 8.849 24.477 8.191 25.625 C7.574 26.682 6.956 27.739 6.32 28.828 C5.756 29.797 5.191 30.765 4.61 31.763 C3 34 3 34 0 35 C-0.99 34.67 -1.98 34.34 -3 34 C-3.579 22.451 -1.819 11.372 0 0 Z " fill="#000000" transform="translate(560,688)"/>
<path d="M0 0 C2.609 0.316 2.609 0.316 4.094 1.977 C4.511 2.769 4.929 3.562 5.359 4.379 C7.166 7.699 8.99 10.961 11.027 14.145 C11.443 14.803 11.859 15.462 12.288 16.14 C13.117 17.449 13.954 18.752 14.802 20.049 C16.63 22.996 17.656 24.752 17.363 28.266 C17.114 28.942 16.866 29.619 16.609 30.316 C13.34 29.753 11.784 28.817 9.609 26.316 C7.234 26.941 7.234 26.941 4.609 28.316 C3.297 31.441 3.297 31.441 2.609 34.316 C1.289 33.986 -0.031 33.656 -1.391 33.316 C-1.729 29.296 -2.06 25.275 -2.391 21.254 C-2.486 20.12 -2.581 18.986 -2.68 17.818 C-3.618 6.325 -3.618 6.325 -3.391 1.316 C-2.391 0.316 -2.391 0.316 0 0 Z M2.609 12.316 C2.609 14.956 2.609 17.596 2.609 20.316 C3.929 20.316 5.249 20.316 6.609 20.316 C6.111 16.629 5.509 14.711 2.609 12.316 Z " fill="#000000" transform="translate(779.390625,691.68359375)"/>
<path d="M0 0 C1.32 0.33 2.64 0.66 4 1 C3.417 8.141 1.9 14.683 -0.062 21.562 C-0.344 22.571 -0.626 23.58 -0.916 24.619 C-1.604 27.081 -2.299 29.541 -3 32 C-3.66 32.165 -3.66 32.165 -7 33 C-9 30 -9 30 -8.616 27.229 C-8.325 26.132 -8.034 25.036 -7.734 23.906 C-7.421 22.711 -7.108 21.516 -6.785 20.285 C-6.444 19.036 -6.102 17.787 -5.75 16.5 C-5.424 15.251 -5.098 14.002 -4.762 12.715 C-2.288 3.433 -2.288 3.433 0 0 Z " fill="#000000" transform="translate(584,695)"/>
<path d="M0 0 C1.606 0.283 3.21 0.577 4.812 0.875 C5.259 0.956 5.259 0.956 7.52 1.367 C10 2 10 2 13 4 C14.452 10.117 14.025 13.51 11 19 C10.34 19.33 9.68 19.66 9 20 C9 24.95 9 29.9 9 35 C8.505 35.165 8.505 35.165 6 36 C3.991 34.33 3.087 33.399 2.523 30.809 C2.474 30.026 2.425 29.244 2.375 28.438 C2.08 24.16 2.08 24.16 1 22 C0.795 22.626 0.59 23.253 0.379 23.898 C0.109 24.716 -0.16 25.533 -0.438 26.375 C-0.704 27.187 -0.971 27.999 -1.246 28.836 C-2 31 -2 31 -3 33 C-4.65 32.67 -6.3 32.34 -8 32 C-7.242 27.977 -6.466 23.957 -5.688 19.938 C-5.474 18.804 -5.261 17.67 -5.041 16.502 C-3.896 10.639 -2.655 5.364 0 0 Z M4 7 C2 9 2 9 1.875 12.125 C1.916 13.074 1.957 14.023 2 15 C3.65 15 5.3 15 7 15 C7.33 13.02 7.66 11.04 8 9 C6.68 8.34 5.36 7.68 4 7 Z " fill="#000000" transform="translate(596,698)"/>
<path d="M0 0 C2.562 1.875 2.562 1.875 4 5 C4.303 8.363 4.235 11.635 4 15 C4.66 15 5.32 15 6 15 C9.736 23.668 9.736 23.668 8 29 C6.249 31.724 4.721 32.103 1.625 33.25 C-1.89 33.977 -3.608 33.816 -7 33 C-8.011 28.961 -9.007 24.918 -10 20.875 C-10.143 20.304 -10.143 20.304 -10.867 17.414 C-11.138 16.305 -11.409 15.197 -11.688 14.055 C-11.939 13.039 -12.19 12.023 -12.449 10.976 C-13.015 7.917 -13.097 5.104 -13 2 C-8.697 -0.435 -4.858 -0.829 0 0 Z M-7 6 C-6.67 8.31 -6.34 10.62 -6 13 C-4.35 12.67 -2.7 12.34 -1 12 C-0.957 10.334 -0.959 8.666 -1 7 C-2 6 -2 6 -4.562 5.938 C-5.367 5.958 -6.171 5.979 -7 6 Z M-3 18 C-3.33 18.33 -3.66 18.66 -4 19 C-3.879 20.848 -3.879 20.848 -3.562 23.062 C-3.377 24.362 -3.191 25.661 -3 27 C-1.02 26.34 0.96 25.68 3 25 C3.125 22.625 3.125 22.625 3 20 C2.34 19.34 1.68 18.68 1 18 C-0.32 18 -1.64 18 -3 18 Z " fill="#000000" transform="translate(763,698)"/>
<path d="M0 0 C0 0.66 0 1.32 0 2 C0.66 2 1.32 2 2 2 C5.561 8.677 4.48 16.858 2.695 23.957 C1.357 27.888 -0.579 30.911 -3.875 33.438 C-7.023 34.271 -8.906 34.031 -12 33 C-15.96 29.249 -16.291 26.136 -16.438 20.75 C-16.184 13.579 -15.644 6.076 -10.25 0.812 C-6.278 -1.403 -4.328 -1.125 0 0 Z M-7.625 7.062 C-11.156 12.037 -11.474 17.118 -11 23 C-9.5 25.5 -9.5 25.5 -8 27 C-5.37 26.009 -4.227 25.44 -2.918 22.898 C-1.244 17.115 -0.795 12.916 -2 7 C-5.499 5.673 -5.499 5.673 -7.625 7.062 Z " fill="#000000" transform="translate(629,704)"/>
<path d="M0 0 C2.333 0.134 2.333 0.134 5 1 C6.486 3.529 6.486 3.529 7.676 6.863 C8.111 8.06 8.546 9.257 8.994 10.49 C9.21 11.118 9.427 11.745 9.65 12.391 C10.309 14.302 10.996 16.201 11.689 18.1 C15 27.374 15 27.374 15 32 C13.35 31.67 11.7 31.34 10 31 C9.67 29.68 9.34 28.36 9 27 C5.625 27.688 5.625 27.688 2 29 C0.562 31.625 0.562 31.625 0 34 C-1.32 34 -2.64 34 -4 34 C-3.111 14.682 -3.111 14.682 -2.562 7.438 C-2.502 6.632 -2.441 5.826 -2.379 4.996 C-2 3 -2 3 0 0 Z M2 13 C2 15.64 2 18.28 2 21 C3.32 21 4.64 21 6 21 C5.125 15.25 5.125 15.25 4 13 C3.34 13 2.68 13 2 13 Z " fill="#000000" transform="translate(723,704)"/>
<path d="M0 0 C2.43 2.268 2.961 3.424 3.188 6.75 C3.157 7.121 3.157 7.121 3 9 C0.562 8.625 0.562 8.625 -2 8 C-2.33 7.34 -2.66 6.68 -3 6 C-3.99 6.33 -4.98 6.66 -6 7 C-5.875 8.75 -5.875 8.75 -5 11 C-2.062 13.125 -2.062 13.125 1 15 C3.658 17.658 3.36 19.106 3.438 22.812 C3.361 27.052 3.243 28.628 0.875 32.25 C-2.552 34.336 -4.067 34.819 -8 34 C-10.875 31.875 -10.875 31.875 -13 29 C-13.312 25.688 -13.312 25.688 -13 23 C-11.68 23 -10.36 23 -9 23 C-7.25 25 -7.25 25 -6 27 C-5.01 26.67 -4.02 26.34 -3 26 C-2.754 23.699 -2.754 23.699 -3 21 C-4.715 19.27 -4.715 19.27 -6.938 17.812 C-10.927 15.146 -10.927 15.146 -12 13 C-12.581 5.91 -12.581 5.91 -10.125 2.062 C-6.577 -1.382 -4.735 -1.256 0 0 Z " fill="#000000" transform="translate(662,707)"/>
<path d="M0 0 C0.99 0.33 1.98 0.66 3 1 C4.267 11.713 5.349 22.197 5 33 C4.34 33.165 4.34 33.165 1 34 C0.226 32.794 -0.544 31.585 -1.312 30.375 C-1.742 29.702 -2.171 29.029 -2.613 28.336 C-4.223 25.624 -5.616 22.833 -7 20 C-7.049 20.999 -7.098 21.998 -7.148 23.027 C-7.223 24.318 -7.298 25.608 -7.375 26.938 C-7.445 28.225 -7.514 29.513 -7.586 30.84 C-7.723 31.883 -7.859 32.926 -8 34 C-8.33 34.165 -8.33 34.165 -10 35 C-12 34 -12 34 -13 31 C-13.234 28.537 -13.421 26.094 -13.562 23.625 C-13.605 22.921 -13.647 22.216 -13.691 21.49 C-14.055 14.992 -14.1 8.507 -14 2 C-12.68 1.67 -11.36 1.34 -10 1 C-7.071 5.561 -4.33 10.095 -2 15 C-2.023 14.085 -2.046 13.17 -2.07 12.227 C-2.088 11.038 -2.106 9.85 -2.125 8.625 C-2.148 7.442 -2.171 6.258 -2.195 5.039 C-2 2 -2 2 0 0 Z " fill="#000000" transform="translate(707,706)"/>
<path d="M0 0 C0.644 0.006 0.644 0.006 3.902 0.035 C5.193 0.044 6.483 0.053 7.812 0.062 C8.812 0.074 9.811 0.086 10.84 0.098 C10.84 1.748 10.84 3.398 10.84 5.098 C7.643 6.163 5.182 6.172 1.84 6.098 C1.51 8.078 1.18 10.058 0.84 12.098 C3.48 12.098 6.12 12.098 8.84 12.098 C9.17 14.078 9.5 16.058 9.84 18.098 C8.52 18.263 8.52 18.263 1.84 19.098 C1.51 21.408 1.18 23.718 0.84 26.098 C3.81 26.098 6.78 26.098 9.84 26.098 C10.5 27.418 11.16 28.738 11.84 30.098 C11.18 31.088 10.52 32.078 9.84 33.098 C6.836 33.426 6.836 33.426 3.277 33.348 C2.1 33.332 0.924 33.317 -0.289 33.301 C-3.16 33.098 -3.16 33.098 -4.16 32.098 C-4.26 29.818 -4.291 27.536 -4.293 25.254 C-4.294 24.57 -4.295 23.885 -4.296 23.18 C-4.297 21.731 -4.295 20.282 -4.291 18.833 C-4.285 16.607 -4.29 14.382 -4.297 12.156 C-4.296 10.751 -4.295 9.346 -4.293 7.941 C-4.292 6.654 -4.291 5.367 -4.29 4.041 C-4.11 -0.035 -4.114 0.127 0 0 Z " fill="#000000" transform="translate(676.16015625,707.90234375)"/>
</svg>
