<?xml version="1.0" standalone="no"?>
<!DOCTYPE svg PUBLIC "-//W3C//DTD SVG 20010904//EN"
 "http://www.w3.org/TR/2001/REC-SVG-20010904/DTD/svg10.dtd">
<svg version="1.0" xmlns="http://www.w3.org/2000/svg"
 width="1433.000000pt" height="1638.000000pt" viewBox="0 0 1433.000000 1638.000000"
 preserveAspectRatio="xMidYMid meet">
<metadata>
Created by potrace 1.16, written by Peter Selinger 2001-2019
</metadata>
<g transform="translate(0.000000,1638.000000) scale(0.100000,-0.100000)"
fill="#000000" stroke="none">
<path d="M2660 15689 c-95 -19 -180 -70 -180 -108 0 -26 35 -70 76 -99 22 -14
150 -84 287 -154 136 -70 262 -137 280 -150 17 -13 43 -29 56 -36 36 -19 162
-108 248 -176 96 -76 258 -236 349 -346 67 -79 204 -271 204 -283 0 -4 12 -23
26 -44 100 -146 250 -515 323 -793 148 -569 155 -1261 16 -1915 -89 -423 -216
-804 -409 -1228 -20 -43 -36 -80 -36 -83 0 -13 -372 -746 -391 -770 -5 -6 -24
-40 -43 -75 -41 -78 -219 -401 -269 -489 -223 -391 -554 -1052 -671 -1340 -15
-36 -31 -74 -36 -85 -43 -100 -145 -391 -180 -515 -7 -25 -18 -63 -25 -85 -7
-22 -22 -80 -34 -130 -12 -49 -28 -115 -37 -145 -8 -30 -24 -111 -35 -180 -11
-69 -24 -150 -29 -180 -27 -168 -45 -421 -45 -650 0 -238 1 -245 20 -245 19 0
20 9 26 150 9 234 36 496 64 640 7 39 21 106 29 150 53 276 174 668 281 910
12 28 31 70 41 95 34 85 220 465 294 600 40 74 80 149 88 165 8 17 23 42 33
56 10 14 51 84 92 155 89 155 207 350 252 419 18 28 62 97 97 155 36 58 94
151 129 208 104 166 165 267 275 452 58 96 109 182 114 190 157 257 431 805
548 1095 52 128 145 389 162 455 5 19 21 76 35 125 29 102 81 315 96 390 74
375 92 562 92 960 0 365 -12 509 -67 786 -73 370 -164 648 -300 919 -129 258
-236 419 -381 576 -294 319 -657 536 -1042 622 -181 41 -319 51 -423 31z"/>
<path d="M1835 15249 c-393 -63 -657 -190 -901 -433 -120 -120 -189 -214 -275
-376 -31 -57 -74 -176 -95 -263 -74 -298 -45 -572 92 -847 62 -125 207 -307
272 -341 14 -8 37 -24 51 -37 14 -12 32 -21 40 -20 27 5 18 40 -14 57 -37 19
-189 182 -220 236 -105 181 -144 293 -172 495 -16 117 -16 125 4 258 36 243
110 425 243 602 91 120 127 158 222 231 233 178 449 264 753 301 213 25 422 7
640 -57 348 -102 706 -355 958 -679 182 -233 288 -454 412 -861 47 -155 54
-181 69 -295 9 -63 22 -151 29 -195 16 -108 16 -660 0 -775 -7 -47 -22 -148
-32 -225 -18 -126 -37 -234 -59 -335 -13 -59 -33 -48 -115 63 -86 117 -149
180 -210 208 -54 24 -72 24 -133 -5 -119 -56 -198 -167 -267 -377 -30 -91 -45
-161 -87 -399 -11 -62 -29 -342 -33 -500 -2 -89 -5 -105 -19 -108 -9 -2 -58
22 -109 52 -51 31 -100 56 -109 56 -9 0 -20 3 -23 6 -16 16 -116 43 -158 44
-115 0 -257 -168 -327 -390 -20 -61 -43 -166 -63 -285 -18 -108 -22 -469 -8
-696 8 -123 14 -233 14 -244 0 -39 -33 -20 -76 45 -56 82 -121 125 -189 124
-96 -1 -300 -114 -413 -228 -65 -66 -157 -198 -203 -291 -27 -54 -67 -169
-109 -313 -9 -29 -22 -101 -31 -160 -8 -59 -18 -129 -24 -157 -15 -82 -22
-379 -11 -535 12 -186 48 -523 61 -575 5 -22 17 -87 25 -145 15 -103 46 -256
87 -435 11 -49 28 -126 38 -170 19 -83 60 -240 105 -405 23 -85 56 -195 99
-330 8 -25 33 -101 55 -170 41 -129 118 -351 188 -545 23 -60 62 -175 88 -255
59 -184 81 -240 142 -370 66 -140 153 -290 214 -367 27 -34 49 -66 49 -71 0
-4 46 -56 101 -115 413 -439 957 -560 1449 -325 174 84 331 220 443 384 106
156 147 260 196 502 13 65 14 214 2 256 -5 17 -16 70 -25 117 -9 48 -31 124
-49 170 -43 107 -43 108 -67 144 -11 17 -27 44 -37 61 -35 61 -143 184 -225
254 -99 84 -340 209 -452 235 -223 50 -346 53 -526 13 -115 -26 -160 -44 -249
-102 -98 -63 -181 -175 -181 -243 0 -64 63 -123 130 -123 44 0 168 36 290 85
141 57 198 73 298 86 147 20 335 -13 477 -83 77 -38 204 -130 254 -182 99
-105 193 -277 227 -416 22 -86 29 -285 14 -392 -16 -122 -30 -165 -102 -317
-37 -77 -181 -232 -272 -291 -68 -46 -200 -111 -270 -135 -222 -76 -520 -71
-734 10 -148 57 -185 80 -400 245 -67 52 -223 243 -293 360 -30 50 -64 107
-76 128 -13 20 -41 80 -64 132 -22 52 -44 104 -49 115 -45 99 -138 428 -160
565 -6 41 -18 104 -25 140 -23 111 -38 428 -31 665 6 226 15 334 41 490 8 50
22 135 31 190 8 55 19 106 23 115 5 8 11 33 14 55 32 206 200 730 353 1098
166 399 281 639 772 1607 194 382 322 646 421 865 10 22 27 60 39 85 43 96 82
191 137 330 31 80 60 154 65 165 18 41 111 308 131 378 12 39 32 110 46 157
74 253 144 585 167 795 9 77 20 174 26 215 30 232 19 568 -30 920 -19 135
-104 473 -140 555 -5 11 -22 54 -38 95 -52 132 -170 362 -239 467 -135 203
-253 337 -418 477 -162 137 -185 154 -298 221 -246 144 -485 229 -737 265 -78
11 -354 10 -425 -1z"/>
<path d="M2400 14353 c-30 -11 -50 -37 -50 -63 0 -49 135 -178 320 -306 357
-245 644 -570 839 -949 85 -165 191 -439 191 -495 0 -24 26 -38 42 -22 19 19
-26 226 -98 442 -50 150 -52 154 -119 295 -98 205 -234 416 -375 580 -94 109
-331 341 -391 383 -142 96 -300 156 -359 135z"/>
<path d="M1454 13986 c-111 -36 -173 -75 -265 -166 -68 -67 -93 -101 -121
-160 -70 -149 -77 -328 -18 -476 36 -91 108 -194 175 -248 50 -42 55 -57 23
-78 -13 -9 -19 -21 -16 -29 7 -18 100 -43 218 -59 225 -31 507 75 643 241 36
45 107 177 107 201 0 7 7 31 15 53 44 123 -3 352 -100 484 -156 212 -432 311
-661 237z"/>
<path d="M5222 12987 c-30 -36 -66 -198 -87 -397 -9 -80 -18 -152 -21 -160 -3
-8 -14 -114 -25 -235 -10 -121 -23 -245 -29 -275 -32 -183 -62 -340 -70 -370
-5 -19 -16 -69 -25 -110 -16 -75 -23 -100 -70 -265 -62 -215 -142 -451 -185
-550 -4 -11 -25 -60 -46 -110 -113 -273 -326 -683 -455 -878 -66 -99 -26 -124
43 -27 217 307 394 599 523 860 81 166 130 276 195 435 64 158 164 452 210
615 11 41 27 98 35 125 8 28 21 84 29 125 9 41 20 91 26 111 15 54 51 247 59
314 3 33 9 65 13 70 3 6 11 80 18 165 19 246 -11 490 -67 552 -19 21 -56 24
-71 5z"/>
<path d="M1067 12923 c-16 -15 -4 -32 34 -53 23 -11 48 -19 55 -16 27 10 14
36 -28 56 -46 22 -51 23 -61 13z"/>
<path d="M1320 12499 c-93 -36 -135 -89 -107 -133 27 -41 142 -70 409 -102
271 -32 499 -127 703 -294 199 -163 360 -394 435 -625 16 -51 44 -71 56 -40 7
18 -22 129 -63 240 -84 229 -217 420 -424 610 -139 128 -349 246 -560 316
-116 38 -133 42 -259 45 -120 4 -141 2 -190 -17z"/>
<path d="M806 10820 c-26 -10 -56 -26 -67 -35 -23 -22 -33 -68 -19 -94 23 -44
133 -83 295 -106 97 -14 210 -41 270 -64 51 -20 196 -98 255 -137 85 -55 237
-212 292 -301 24 -38 49 -78 56 -89 7 -10 21 -38 32 -61 11 -24 23 -43 28 -43
5 0 8 -10 8 -22 -1 -14 6 -24 17 -26 23 -5 35 28 15 42 -8 6 -13 17 -10 24 12
38 -84 252 -175 389 -226 342 -753 618 -997 523z"/>
<path d="M5780 9873 c-19 -1 -87 -8 -150 -13 -261 -24 -510 -87 -805 -203 -80
-32 -370 -182 -450 -233 -188 -121 -425 -310 -425 -340 0 -38 34 -24 186 74
10 6 52 29 92 50 40 20 92 47 115 59 46 24 299 124 362 143 22 7 58 19 80 26
47 16 236 56 355 75 87 14 418 17 830 8 230 -5 264 2 327 65 56 57 63 86 29
137 -75 113 -301 176 -546 152z"/>
<path d="M4610 9145 c-221 -37 -295 -64 -263 -96 6 -6 33 -4 74 5 202 47 527
41 740 -13 273 -70 427 -151 679 -358 77 -64 217 -239 271 -340 17 -32 37 -67
44 -78 21 -34 73 -166 88 -225 51 -192 52 -198 52 -425 0 -216 -14 -352 -56
-532 -17 -78 -23 -221 -9 -238 62 -75 212 145 282 415 37 141 35 440 -4 610
-43 189 -147 427 -261 593 -125 185 -357 389 -570 502 -110 59 -286 129 -372
148 -267 61 -470 70 -695 32z"/>
<path d="M4430 8835 c-325 -47 -687 -211 -950 -430 -130 -109 -358 -353 -440
-471 -70 -101 -138 -202 -143 -214 -4 -8 -16 -28 -26 -45 -134 -216 -293 -570
-385 -855 -20 -63 -42 -131 -48 -150 -11 -33 -33 -125 -64 -255 -24 -108 -64
-337 -80 -465 -18 -146 -29 -706 -17 -850 7 -86 10 -95 28 -95 19 0 20 9 27
140 12 251 23 338 84 675 8 47 19 99 24 115 5 17 26 90 46 164 61 228 137 445
230 654 54 121 200 405 220 428 8 8 14 18 14 22 0 13 121 198 203 311 288 396
640 677 992 793 502 166 986 69 1310 -261 181 -185 274 -405 275 -651 1 -423
-307 -759 -695 -759 -164 0 -275 34 -407 124 -65 45 -94 73 -144 143 -36 49
-77 122 -95 169 -30 76 -33 94 -37 213 -4 154 5 210 33 210 17 0 20 -8 23 -45
3 -61 21 -168 31 -188 5 -10 16 -35 25 -56 27 -63 105 -165 159 -207 44 -35
114 -73 187 -101 13 -5 58 -15 100 -22 62 -11 88 -11 152 0 140 24 238 76 334
176 60 62 89 107 129 203 27 63 30 81 30 180 0 116 -7 146 -65 270 -88 193
-341 334 -551 310 -220 -26 -398 -118 -539 -279 -117 -133 -190 -330 -190
-510 0 -252 119 -497 323 -666 159 -131 437 -222 627 -205 121 11 255 47 360
97 89 42 244 155 312 226 116 121 228 329 278 517 30 112 38 354 16 485 -38
229 -139 447 -293 633 -74 91 -227 228 -322 291 -182 120 -428 208 -661 236
-109 13 -312 11 -420 -5z"/>
<path d="M3755 6549 c-173 -15 -362 -73 -520 -158 -201 -110 -408 -296 -527
-476 -85 -129 -181 -312 -174 -330 11 -30 36 -14 66 43 163 307 444 566 740
680 30 12 98 34 150 48 87 25 110 28 275 28 109 1 196 -4 220 -11 22 -6 67
-19 100 -28 186 -53 411 -215 508 -367 91 -141 178 -357 217 -538 17 -80 42
-152 59 -173 35 -43 89 0 113 91 52 195 -1 451 -137 657 -238 361 -666 571
-1090 534z"/>
<path d="M1107 5279 c-61 -32 -120 -144 -143 -272 -8 -45 -19 -101 -24 -125
-13 -55 -13 -250 0 -304 5 -24 17 -90 26 -148 9 -58 20 -109 25 -115 5 -5 9
-17 9 -27 0 -80 207 -520 315 -673 173 -242 347 -436 515 -571 157 -127 411
-276 595 -351 97 -39 269 -87 410 -114 173 -32 501 -29 655 7 109 25 296 82
336 101 10 5 62 31 115 56 485 236 830 709 900 1235 13 94 8 410 -6 433 -5 7
-9 25 -9 39 -1 15 -8 26 -19 28 -20 4 -32 -20 -22 -45 4 -10 6 -61 5 -114 -4
-261 -56 -476 -166 -689 -125 -241 -286 -407 -569 -588 -21 -13 -103 -53 -170
-82 -136 -60 -379 -110 -537 -110 -281 0 -466 37 -715 143 -183 77 -463 277
-579 413 -282 329 -419 586 -524 984 -12 47 -28 105 -36 130 -7 25 -22 81 -33
125 -81 334 -124 471 -172 550 -56 94 -114 120 -182 84z"/>
<path d="M11250 4903 c-87 -6 -305 -34 -335 -43 -16 -5 -57 -14 -90 -20 -80
-15 -231 -56 -335 -91 -78 -26 -109 -37 -240 -88 -199 -77 -545 -264 -756
-407 -217 -148 -254 -175 -254 -190 0 -32 32 -22 126 39 185 121 520 297 707
370 37 15 95 38 130 52 170 68 421 134 607 160 63 9 135 21 160 26 73 16 412
22 535 9 237 -25 394 -52 460 -79 11 -5 49 -17 85 -29 189 -59 390 -157 543
-264 37 -27 70 -48 73 -48 12 0 156 -124 245 -211 88 -87 239 -259 239 -272 0
-3 19 -34 43 -69 63 -91 182 -305 239 -427 56 -121 50 -108 119 -266 97 -223
157 -325 194 -325 25 0 54 57 66 128 15 93 -1 250 -42 397 -16 61 -34 124 -38
140 -20 75 -116 275 -178 372 -260 409 -654 743 -1108 938 -60 26 -119 51
-130 56 -29 13 -220 68 -295 86 -214 49 -538 73 -770 56z"/>
<path d="M6001 4488 c-96 -13 -276 -66 -360 -104 -162 -75 -341 -245 -418
-399 -76 -151 -113 -348 -94 -504 57 -463 433 -839 1004 -1002 97 -28 191 -43
427 -70 231 -26 750 52 995 150 11 5 65 25 120 46 314 118 706 321 1045 540
36 24 110 70 165 104 55 34 134 84 175 111 147 95 539 335 635 388 64 35 396
199 440 217 22 9 49 20 60 25 471 208 1013 282 1425 194 227 -48 493 -164 670
-290 120 -87 266 -232 353 -354 67 -92 187 -318 187 -350 0 -9 4 -20 9 -25 18
-19 71 -241 82 -345 41 -397 -103 -830 -372 -1114 -91 -96 -200 -189 -270
-230 -41 -25 -190 -99 -234 -118 -80 -33 -247 -78 -331 -88 -114 -15 -403 -8
-469 10 -22 6 -59 15 -83 20 -115 25 -339 135 -447 221 -72 56 -177 165 -227
234 -90 126 -167 326 -189 490 -21 164 0 328 63 490 28 71 41 90 118 166 47
47 97 92 112 100 14 8 43 24 64 35 166 91 404 109 589 45 135 -47 182 -77 290
-186 138 -138 198 -257 224 -445 12 -89 24 -145 45 -223 9 -32 16 -60 16 -63
0 -2 19 -25 41 -49 45 -49 70 -55 119 -30 37 19 87 122 101 208 27 160 -33
358 -166 547 -125 178 -307 315 -505 381 -137 46 -332 63 -438 38 -175 -40
-293 -88 -381 -154 -29 -22 -62 -45 -73 -51 -51 -30 -156 -166 -210 -273 -147
-288 -141 -647 17 -961 73 -147 233 -344 340 -420 188 -134 273 -179 429 -230
233 -74 203 -70 473 -70 248 0 248 0 398 44 157 45 262 86 355 138 399 223
647 536 789 999 40 128 71 411 59 524 -13 127 -38 275 -53 324 -8 25 -24 80
-37 121 -28 93 -129 298 -199 405 -121 184 -305 371 -489 496 -115 79 -196
123 -367 200 -93 42 -288 96 -463 130 -86 16 -400 22 -525 10 -204 -20 -516
-90 -670 -150 -376 -147 -538 -225 -840 -404 -149 -88 -264 -162 -677 -439
-180 -120 -330 -218 -333 -218 -3 0 -26 -15 -52 -33 -27 -19 -88 -58 -138 -87
-49 -29 -113 -68 -141 -86 -122 -79 -626 -324 -666 -324 -8 0 -18 -4 -23 -9
-10 -9 -205 -72 -280 -90 -22 -5 -67 -16 -100 -25 -103 -25 -323 -47 -500 -49
-209 -2 -361 17 -560 72 -191 53 -447 203 -576 338 -60 63 -160 204 -185 263
-6 14 -19 42 -28 63 -23 54 -46 196 -46 288 0 240 73 420 237 585 92 92 145
122 288 161 167 47 400 32 517 -32 14 -8 31 -15 38 -15 6 0 37 -16 68 -36 166
-106 265 -232 328 -417 30 -87 86 -180 130 -213 20 -15 52 -29 77 -31 36 -4
48 -1 74 21 43 36 56 82 51 180 -4 63 -11 93 -33 136 -155 306 -437 508 -765
549 -96 12 -139 12 -229 -1z"/>
<path d="M7682 4424 c-12 -8 -28 -27 -36 -42 -25 -50 -46 -207 -56 -412 -8
-182 -13 -218 -40 -315 -32 -114 -96 -258 -152 -342 -118 -177 -221 -280 -398
-398 -106 -71 -170 -102 -280 -138 -118 -39 -150 -47 -230 -61 -63 -10 -75
-15 -75 -32 0 -18 7 -19 95 -16 456 14 888 266 1165 678 150 222 255 560 240
769 -9 133 -46 227 -114 288 -45 41 -82 47 -119 21z"/>
<path d="M8488 4280 c-72 -39 -105 -112 -123 -270 -31 -270 -137 -527 -303
-736 -46 -59 -105 -127 -129 -151 -30 -29 -43 -49 -39 -59 9 -23 31 -14 130
51 284 189 487 449 628 806 29 73 33 96 33 174 0 72 -4 97 -20 124 -42 72
-112 96 -177 61z"/>
<path d="M4935 3298 c-9 -23 -46 -211 -56 -283 -13 -89 -13 -399 0 -490 8 -65
44 -231 70 -334 15 -55 62 -183 108 -289 31 -70 62 -129 133 -252 51 -86 159
-226 203 -261 149 -120 307 -117 402 8 114 149 71 298 -132 460 -138 110 -271
256 -368 403 -75 114 -195 340 -195 368 0 6 -14 52 -30 103 -46 139 -74 296
-89 494 -5 65 -9 80 -24 83 -9 2 -19 -2 -22 -10z"/>
<path d="M4617 2993 c-158 -224 -425 -447 -692 -579 -225 -110 -402 -156 -655
-169 -268 -14 -506 23 -745 117 -157 61 -240 80 -350 80 -93 0 -147 -17 -202
-66 -77 -68 -92 -135 -48 -222 74 -149 282 -276 515 -314 278 -46 542 -44 778
4 200 41 336 88 512 174 339 167 649 450 853 782 60 98 129 241 123 256 -11
29 -37 11 -89 -63z"/>
<path d="M8690 2864 c-116 -99 -399 -280 -581 -372 -232 -118 -401 -183 -600
-233 -46 -11 -101 -25 -121 -30 -20 -5 -81 -16 -135 -24 -384 -62 -638 -57
-978 17 -109 24 -296 93 -416 154 -183 93 -321 196 -470 352 -48 50 -93 92
-99 92 -59 0 67 -187 250 -371 163 -164 301 -265 480 -350 112 -53 143 -66
220 -92 133 -45 175 -56 276 -73 54 -8 117 -21 139 -27 55 -16 443 -16 515 0
30 7 93 20 140 28 333 62 750 274 1080 549 138 114 401 386 398 410 -5 35 -30
27 -98 -30z"/>
</g>
</svg>
