<?xml version="1.0" standalone="no"?>
<!DOCTYPE svg PUBLIC "-//W3C//DTD SVG 20010904//EN"
 "http://www.w3.org/TR/2001/REC-SVG-20010904/DTD/svg10.dtd">
<svg version="1.0" xmlns="http://www.w3.org/2000/svg"
 width="1344.000000pt" height="768.000000pt" viewBox="0 0 1344.000000 768.000000"
 preserveAspectRatio="xMidYMid meet">
<metadata>
Created by potrace 1.16, written by Peter Selinger 2001-2019
</metadata>
<g transform="translate(0.000000,768.000000) scale(0.100000,-0.100000)"
fill="#000000" stroke="none">
<path d="M6743 7638 c-4 -6 -30 -77 -58 -157 l-50 -146 -169 -3 c-168 -2 -196
-8 -196 -38 0 -8 61 -59 135 -115 74 -55 135 -107 135 -115 0 -9 -18 -76 -41
-151 -67 -226 -52 -238 134 -98 69 52 131 95 137 95 6 0 67 -43 137 -95 126
-95 158 -110 170 -78 7 17 -14 108 -53 233 -13 41 -24 83 -24 92 0 11 50 55
131 114 115 85 130 100 127 123 -3 26 -3 26 -178 31 l-175 5 -46 138 c-25 76
-51 147 -57 158 -14 21 -46 25 -59 7z m81 -268 l31 -95 120 -5 c97 -4 120 -8
123 -20 1 -10 -31 -40 -83 -79 -47 -34 -87 -67 -90 -71 -3 -5 6 -50 21 -100
39 -137 23 -151 -83 -70 -37 28 -77 50 -90 50 -14 0 -57 -24 -99 -56 -110 -81
-124 -66 -78 84 30 98 33 90 -78 168 -111 78 -106 88 47 94 l120 5 30 85 c17
47 34 91 38 98 20 30 40 5 71 -88z"/>
<path d="M6736 6718 c-8 -18 -29 -82 -46 -143 -18 -60 -37 -116 -43 -123 -5
-7 -30 -21 -55 -32 -109 -49 -218 -166 -268 -290 -72 -179 -22 -408 119 -551
51 -52 51 -52 34 -81 -37 -65 -19 -86 78 -90 l70 -3 3 -239 c2 -188 5 -243 16
-255 12 -13 15 -195 19 -1131 2 -613 1 -1127 -2 -1141 -4 -15 -45 -61 -103
-114 -53 -48 -102 -101 -109 -117 -7 -18 -9 -46 -4 -76 4 -26 6 -59 6 -74 -2
-44 -3 -109 -3 -163 0 -27 0 -71 0 -97 0 -99 0 -495 0 -541 1 -79 41 -101 93
-51 45 43 61 28 53 -53 -5 -58 -10 -71 -33 -88 -80 -61 -91 -76 -91 -120 0
-52 24 -85 79 -109 76 -35 140 -4 185 89 15 30 34 55 42 55 7 0 27 -27 44 -60
45 -90 96 -115 175 -84 55 21 85 59 85 109 0 33 -8 45 -59 94 -48 45 -60 64
-65 96 -3 22 -8 50 -12 62 -10 35 20 40 60 9 19 -14 43 -26 54 -26 43 0 47 19
45 264 -1 127 -2 243 -2 259 0 105 0 160 0 180 0 12 1 92 4 177 l4 155 -114
108 -114 109 -1 1127 c0 1118 0 1128 20 1146 19 17 20 30 20 250 0 174 3 235
13 243 6 5 37 9 68 9 95 -2 115 39 54 110 -19 23 -35 48 -35 55 0 8 20 29 44
46 174 125 264 371 211 576 -46 175 -193 334 -365 395 -28 10 -53 21 -58 25
-4 4 -16 35 -27 69 -18 54 -23 62 -48 65 -23 3 -30 -2 -41 -30z m75 -203 c10
-33 16 -68 13 -78 -3 -10 1 -26 10 -36 14 -16 16 -58 14 -362 l-3 -344 -70 0
c-70 0 -70 0 -73 38 -4 44 18 59 48 32 11 -10 26 -15 34 -12 13 5 16 54 18
334 2 180 0 332 -5 338 -5 6 -14 6 -25 -1 -12 -8 -19 -29 -22 -70 -4 -51 -8
-59 -25 -59 -18 0 -20 6 -19 60 1 49 33 186 51 218 13 22 37 -4 54 -58z m185
-41 c200 -133 282 -387 192 -596 -41 -96 -173 -238 -221 -238 -38 0 -57 29
-57 85 0 50 2 54 48 92 26 22 61 64 77 94 28 50 30 62 30 154 0 118 -15 154
-99 245 -45 47 -54 64 -65 118 -6 34 -9 67 -6 72 12 19 47 10 101 -26z m-364
-199 c-4 -77 -4 -80 -44 -119 -113 -113 -115 -286 -6 -402 26 -28 48 -59 48
-70 0 -22 -68 -94 -90 -94 -38 0 -122 114 -160 217 -19 53 -22 77 -18 160 3
84 8 107 35 165 33 71 101 151 167 200 62 45 72 37 68 -57z m353 -100 c28 -58
27 -166 -3 -223 -16 -29 -29 -42 -40 -40 -15 3 -17 21 -20 143 -1 76 0 145 3
153 9 24 40 8 60 -33z m-357 -228 c2 -82 0 -98 -13 -104 -27 -10 -39 14 -43
85 -4 78 10 125 36 120 14 -3 17 -17 20 -101z m294 -377 c84 -96 87 -95 -145
-98 -237 -3 -237 -3 -152 93 57 65 57 65 150 65 94 0 94 0 147 -60z m-87 -485
c0 -18 -8 -20 -64 -23 -67 -3 -88 6 -77 33 5 13 19 15 73 13 60 -3 68 -5 68
-23z m-20 -1285 l0 -1095 -40 0 -40 0 -3 1085 c-1 597 0 1091 3 1098 3 9 18
12 42 10 l38 -3 0 -1095z m98 -1291 c118 -108 143 -139 133 -166 -10 -25 -32
-12 -141 87 -60 55 -118 99 -128 100 -10 0 -66 -43 -124 -95 -106 -95 -134
-109 -142 -70 -2 15 28 50 120 137 68 65 132 118 142 118 10 0 73 -50 140
-111z m-3 -170 c121 -108 146 -138 136 -166 -11 -27 -39 -11 -144 82 -59 52
-115 95 -125 95 -11 0 -66 -42 -124 -92 -57 -51 -112 -93 -121 -93 -11 0 -18
10 -20 27 -3 22 15 42 125 142 70 63 133 116 138 116 6 0 66 -50 135 -111z
m-63 -121 c33 -29 90 -79 127 -112 55 -48 67 -63 64 -85 -2 -14 -10 -27 -18
-29 -8 -1 -64 40 -123 93 -60 52 -114 95 -120 95 -7 0 -61 -43 -121 -96 -112
-98 -141 -111 -141 -61 0 24 21 46 125 137 69 60 130 109 136 110 6 0 38 -24
71 -52z m67 -238 c120 -106 136 -125 136 -156 0 -39 -35 -21 -143 75 -63 56
-122 101 -131 101 -9 0 -64 -42 -122 -92 -108 -95 -137 -109 -142 -72 -2 16
27 50 120 138 68 64 131 116 141 116 10 0 74 -49 141 -110z m-3 -172 c97 -87
124 -117 124 -137 0 -15 -6 -27 -15 -28 -8 -2 -64 40 -123 92 -60 52 -114 95
-121 95 -7 0 -62 -43 -122 -95 -60 -53 -116 -94 -124 -93 -8 2 -15 14 -15 28
0 18 30 51 125 137 69 62 130 113 136 113 6 0 66 -50 135 -112z m-79 -100 c28
-24 54 -53 59 -65 5 -13 17 -23 27 -23 20 0 45 -24 55 -52 4 -10 15 -18 25
-18 25 0 46 -25 38 -46 -9 -23 -39 -13 -54 19 -7 15 -21 27 -31 27 -19 0 -44
24 -54 53 -4 9 -14 17 -23 17 -9 0 -32 14 -51 30 -18 17 -40 30 -48 30 -8 0
-32 -16 -54 -35 -21 -19 -42 -35 -47 -35 -5 0 -22 -16 -37 -35 -30 -37 -54
-45 -64 -19 -5 14 31 64 48 64 4 0 38 29 75 65 38 36 72 65 77 65 5 0 31 -19
59 -42z m-17 -138 c22 -23 29 -41 33 -87 3 -31 13 -71 23 -88 12 -19 19 -49
19 -80 0 -49 2 -52 60 -103 64 -57 73 -82 38 -106 -52 -37 -80 -17 -137 96
-34 69 -38 73 -72 76 -36 3 -37 2 -79 -75 -50 -94 -66 -113 -94 -113 -30 0
-66 27 -66 50 0 10 27 41 60 70 59 51 60 53 60 105 0 37 6 60 20 78 15 19 20
40 20 88 0 58 2 64 33 90 41 36 47 36 82 -1z"/>
<path d="M4802 6324 c-29 -7 -66 -21 -83 -29 -24 -13 -49 -15 -127 -9 -105 7
-247 -13 -306 -43 -46 -24 -150 -108 -179 -146 -22 -29 -32 -34 -99 -43 -93
-14 -171 -49 -253 -114 -76 -61 -128 -136 -170 -246 -28 -77 -37 -88 -131
-180 -84 -82 -108 -112 -140 -178 -37 -75 -39 -86 -39 -171 0 -76 -4 -95 -21
-120 -93 -132 -127 -295 -88 -425 13 -45 14 -65 4 -134 -7 -45 -11 -128 -9
-186 4 -96 8 -112 40 -180 20 -41 57 -98 82 -126 34 -37 53 -70 67 -115 26
-84 74 -153 156 -225 98 -87 125 -115 164 -169 22 -32 65 -70 116 -105 45 -30
105 -81 134 -112 34 -38 73 -68 113 -88 139 -68 356 -94 547 -66 61 8 109 11
114 6 5 -5 3 -29 -5 -57 -24 -81 -17 -215 14 -305 24 -66 26 -82 18 -120 -15
-64 -13 -167 5 -229 8 -30 34 -85 57 -123 33 -55 43 -83 48 -137 4 -37 17 -85
28 -108 27 -52 116 -141 176 -176 28 -17 55 -44 71 -71 49 -83 157 -151 280
-177 33 -7 75 -22 95 -34 159 -99 390 -70 562 71 32 26 64 45 72 43 9 -4 14
-37 17 -116 3 -99 6 -112 27 -135 20 -21 34 -26 73 -26 73 0 77 10 89 251 6
112 9 290 7 394 -4 170 -7 198 -30 267 -56 168 -134 270 -287 372 -163 108
-262 241 -310 416 -78 279 60 583 352 780 82 55 95 80 59 113 -27 25 -137 47
-233 47 -94 0 -197 -25 -240 -58 -18 -14 -49 -21 -118 -25 -103 -8 -121 -1
-121 40 0 43 -67 228 -111 309 -64 117 -146 221 -272 346 -179 178 -268 332
-311 541 -58 278 50 543 301 743 71 57 243 148 353 186 60 21 65 26 65 52 0
19 -8 35 -25 48 -96 71 -454 121 -598 82z m383 -87 c88 -19 83 -40 -23 -94
-277 -140 -461 -347 -528 -594 -27 -99 -25 -299 5 -409 52 -192 170 -382 330
-532 201 -187 351 -464 351 -647 0 -43 -4 -51 -54 -100 -34 -33 -60 -52 -69
-48 -9 3 -21 36 -31 79 -48 213 -216 459 -416 607 -163 120 -277 251 -356 410
-114 229 -141 510 -74 759 23 85 96 234 150 307 80 108 221 225 325 269 33 14
64 16 185 11 80 -2 172 -11 205 -18z m-628 -42 c3 -10 -15 -38 -55 -78 -67
-71 -160 -207 -199 -294 -70 -157 -104 -377 -84 -547 41 -349 196 -613 484
-824 91 -68 114 -96 84 -107 -19 -8 -272 110 -341 159 -74 53 -236 220 -300
309 -96 135 -179 332 -207 492 -17 98 -6 312 20 392 56 173 188 360 313 446
80 55 270 89 285 52z m-571 -249 c3 -8 -6 -34 -20 -58 -144 -247 -140 -624 12
-924 62 -123 174 -277 276 -379 122 -121 221 -189 347 -238 140 -55 379 -201
379 -232 0 -28 -21 -25 -102 13 -95 44 -163 64 -298 87 -313 52 -598 251 -797
557 -172 262 -222 611 -128 880 40 113 85 178 169 242 82 62 150 84 162 52z
m-444 -631 c4 -91 13 -167 27 -218 128 -481 532 -865 998 -947 122 -22 234
-55 306 -91 74 -37 207 -130 207 -144 0 -28 -23 -26 -89 9 -89 47 -259 103
-350 116 -40 6 -130 14 -199 19 -189 14 -341 69 -527 189 -97 63 -297 266
-368 374 -70 105 -140 250 -161 333 -56 220 -36 339 78 463 63 69 70 60 78
-103z m-207 -430 c23 -77 76 -181 149 -290 185 -276 428 -465 726 -565 78 -26
119 -33 235 -40 261 -16 430 -65 598 -172 76 -49 60 -82 -26 -50 -102 38 -365
69 -602 71 -252 1 -453 70 -711 242 -270 181 -474 466 -474 663 0 46 25 144
45 177 15 24 48 4 60 -36z m-1 -550 c72 -93 208 -222 315 -299 150 -108 380
-211 546 -247 28 -5 160 -14 295 -19 395 -14 606 -61 535 -120 -13 -11 -28
-10 -84 3 -99 24 -250 31 -361 17 -174 -22 -347 -24 -461 -5 -391 66 -735 262
-844 483 -23 46 -30 74 -33 144 -7 145 9 152 92 43z m2632 -369 c3 -9 -36 -55
-104 -123 -124 -123 -175 -202 -224 -345 -29 -85 -32 -104 -32 -223 -1 -121 1
-136 30 -217 62 -172 195 -339 338 -422 128 -75 211 -193 257 -366 19 -70 23
-112 24 -235 0 -143 -1 -150 -20 -150 -18 0 -21 9 -26 75 -13 148 -83 292
-220 448 -77 89 -120 125 -251 211 -151 99 -277 271 -328 451 -30 105 -38 288
-17 397 31 160 93 277 212 399 64 66 90 85 130 97 67 21 224 22 231 3z m-460
-81 c4 -9 -11 -38 -36 -71 -53 -71 -106 -183 -131 -276 -25 -96 -34 -262 -20
-362 36 -250 184 -481 400 -620 86 -56 104 -77 81 -91 -16 -10 -118 23 -193
62 -190 100 -384 367 -448 618 -47 183 -25 431 47 548 54 87 137 159 216 187
65 24 77 24 84 5z m-1953 -92 c128 -81 320 -151 500 -182 192 -34 271 -35 486
-11 170 19 205 20 282 9 94 -13 126 -27 117 -51 -5 -12 -31 -16 -110 -20 -81
-5 -127 -14 -213 -42 -60 -19 -144 -40 -185 -47 -92 -14 -277 -6 -380 16 -103
23 -259 85 -355 142 -99 59 -221 172 -212 196 9 23 20 21 70 -10z m1521 -263
c-1 -25 -3 -94 -4 -155 -6 -197 36 -344 153 -543 126 -214 311 -369 495 -417
147 -37 272 -93 272 -120 0 -25 -19 -26 -86 -5 -37 11 -115 24 -175 30 -133
11 -212 31 -303 76 -218 108 -421 355 -489 595 -63 222 -32 440 81 562 38 40
57 32 56 -23z m-206 -92 c3 -24 -3 -30 -57 -57 -85 -43 -212 -78 -332 -91
-166 -18 -325 3 -481 63 -65 26 -83 37 -83 52 0 24 16 24 99 1 186 -50 372
-47 581 13 181 51 173 49 225 48 41 -2 45 -4 48 -29z m-30 -154 c4 -30 -13
-40 -108 -63 -126 -31 -258 -47 -272 -33 -24 24 0 39 74 45 46 3 112 18 173
40 113 39 129 40 133 11z m1 -176 c5 -13 17 -57 26 -98 30 -134 125 -312 232
-433 179 -202 359 -297 606 -318 153 -13 182 -20 182 -43 0 -16 -16 -18 -190
-21 -133 -2 -213 2 -269 12 -245 45 -484 234 -602 476 -59 122 -80 219 -65
307 19 120 57 175 80 118z m48 -641 c113 -137 271 -245 453 -308 59 -21 85
-23 280 -25 208 -1 270 -8 355 -36 29 -9 40 -19 40 -33 0 -19 -6 -20 -90 -17
-64 3 -124 -3 -205 -18 -320 -61 -642 28 -824 230 -83 92 -139 280 -83 280 8
0 41 -33 74 -73z m117 -377 c188 -128 469 -176 716 -125 36 8 103 15 150 17
79 3 85 2 85 -17 0 -16 -9 -21 -51 -27 -28 -4 -104 -26 -170 -49 -112 -39
-127 -42 -254 -46 -153 -6 -263 14 -368 64 -96 47 -200 166 -177 202 10 17 20
14 69 -19z m1021 -225 c0 -13 -10 -21 -31 -27 -16 -4 -67 -30 -113 -57 -151
-91 -286 -124 -416 -102 -86 15 -185 52 -199 74 -19 30 4 36 104 25 132 -14
247 1 389 52 100 36 210 60 251 56 8 -1 15 -10 15 -21z m-8 -111 c7 -19 -29
-51 -110 -94 -58 -32 -87 -34 -87 -6 0 14 17 27 109 83 61 37 79 40 88 17z"/>
<path d="M8415 6329 c-193 -26 -349 -98 -319 -147 6 -9 53 -33 105 -53 181
-69 280 -130 396 -242 99 -96 153 -176 192 -284 57 -155 59 -318 5 -488 -54
-171 -135 -297 -292 -454 -120 -120 -180 -194 -242 -301 -48 -83 -107 -232
-122 -307 -6 -32 -15 -64 -21 -70 -16 -22 -184 -5 -232 22 -97 55 -262 72
-389 39 -108 -28 -124 -65 -49 -117 201 -139 313 -276 368 -450 37 -116 42
-222 16 -331 -46 -190 -149 -336 -320 -449 -54 -36 -117 -87 -140 -114 -48
-56 -123 -202 -147 -288 -39 -137 -22 -807 21 -855 24 -27 94 -27 126 -1 22
18 24 28 29 137 6 140 11 145 85 83 68 -57 175 -106 273 -127 69 -14 91 -15
152 -4 73 12 120 31 155 62 11 9 41 20 66 23 119 16 256 98 299 180 18 35 42
58 87 87 113 74 177 172 190 290 4 45 15 78 39 117 68 114 86 208 63 338 -9
55 -8 69 11 126 31 91 38 239 15 308 -10 30 -13 57 -9 61 5 5 54 2 109 -7 180
-27 415 -2 547 59 64 29 158 111 158 137 0 6 31 28 69 50 81 48 152 114 180
168 11 22 39 52 62 68 108 71 190 176 225 288 10 30 33 69 54 92 101 109 140
206 140 349 0 52 -7 127 -15 165 -13 62 -13 77 0 114 45 134 16 285 -83 429
-26 38 -29 49 -25 99 6 67 -17 165 -54 229 -14 25 -71 90 -127 145 -87 85
-105 108 -120 155 -50 155 -144 268 -289 349 -44 25 -137 51 -180 51 -23 0
-48 18 -113 79 -45 43 -102 88 -126 99 -65 32 -217 55 -322 49 -80 -4 -94 -2
-145 21 -49 23 -71 27 -171 28 -63 2 -146 -2 -185 -7z m351 -104 c237 -118
432 -407 464 -688 22 -184 7 -328 -48 -493 -72 -213 -209 -400 -397 -539 -201
-148 -365 -384 -417 -598 -12 -52 -27 -91 -35 -94 -9 -4 -38 17 -74 53 -60 58
-60 59 -54 104 31 224 144 430 350 635 215 214 320 411 355 668 30 213 -57
459 -222 633 -97 102 -183 165 -306 225 -99 49 -125 70 -106 89 18 18 172 38
295 39 125 1 127 1 195 -34z m351 -31 c88 -18 137 -48 225 -137 107 -109 191
-253 227 -392 26 -98 29 -309 6 -407 -57 -240 -157 -422 -341 -617 -101 -108
-193 -173 -321 -230 -60 -27 -120 -54 -136 -61 -20 -10 -31 -10 -39 -2 -19 19
-2 39 96 112 319 238 491 599 472 985 -14 273 -101 475 -289 672 -90 94 -66
112 100 77z m501 -251 c81 -40 170 -127 208 -204 66 -134 79 -195 79 -394 0
-191 -12 -256 -69 -390 -117 -277 -335 -514 -592 -643 -72 -36 -233 -92 -265
-92 -44 0 -253 -58 -323 -90 -70 -31 -96 -33 -96 -6 0 30 271 193 375 226 224
71 529 401 649 703 53 134 69 212 73 373 6 185 -11 267 -87 422 -66 132 -59
146 48 95z m439 -527 c21 -24 52 -68 68 -97 51 -95 47 -266 -11 -433 -86 -248
-319 -530 -554 -673 -147 -89 -380 -163 -515 -163 -153 0 -348 -46 -479 -112
-59 -29 -86 -31 -86 -5 0 20 56 61 153 112 101 52 174 76 341 110 193 39 282
76 447 187 174 116 347 313 443 507 44 88 93 240 106 326 5 39 10 115 10 171
0 134 12 144 77 70z m205 -533 c32 -72 36 -184 10 -270 -32 -103 -112 -223
-226 -342 -160 -164 -308 -265 -512 -348 -151 -61 -269 -82 -545 -93 -246 -10
-322 -18 -437 -46 -66 -17 -91 -11 -79 19 8 23 124 84 219 117 120 41 225 61
378 70 135 9 157 13 280 52 273 87 540 307 715 589 57 91 124 238 125 270 0
21 9 29 32 29 13 0 26 -15 40 -47z m16 -495 c16 -16 15 -111 -2 -176 -71 -267
-478 -503 -958 -557 -122 -13 -145 -13 -268 3 -182 23 -374 23 -462 -1 -72
-20 -112 -12 -106 21 8 43 239 81 563 92 301 11 395 32 610 135 210 101 402
253 535 424 56 73 67 80 88 59z m-2488 -425 c48 -13 66 -26 140 -102 97 -98
154 -196 192 -326 20 -68 23 -102 23 -230 -1 -128 -4 -161 -24 -224 -68 -221
-169 -356 -355 -479 -114 -75 -222 -180 -301 -292 -68 -97 -103 -170 -130
-275 -17 -66 -24 -80 -40 -80 -19 0 -20 7 -19 110 2 130 28 241 80 349 47 95
100 156 187 212 102 66 153 110 202 174 222 288 241 596 57 885 -49 77 -167
204 -220 237 -92 56 50 85 208 41z m325 -85 c100 -38 213 -161 243 -263 65
-221 48 -429 -53 -651 -100 -220 -286 -410 -461 -474 -125 -45 -154 -4 -44 60
180 105 330 311 391 535 18 64 22 108 22 220 1 205 -36 328 -146 493 -68 103
-57 121 48 80z m1913 -92 c6 -27 -98 -121 -197 -180 -155 -91 -315 -143 -512
-166 -121 -14 -258 5 -415 56 -84 28 -133 37 -214 42 -96 6 -105 9 -105 27 0
46 176 67 350 42 189 -27 239 -29 371 -17 242 22 474 89 624 179 70 42 93 46
98 17z m-1514 -241 c150 -197 138 -508 -31 -787 -65 -109 -139 -196 -220 -261
-143 -114 -259 -158 -463 -177 -63 -6 -144 -20 -178 -31 -66 -22 -91 -17 -79
15 11 28 97 62 312 125 94 27 205 102 296 199 73 77 169 212 201 282 80 172
108 286 108 434 0 62 -5 138 -11 169 -16 92 9 104 65 32z m302 -94 c38 -11
110 -32 159 -47 82 -24 105 -27 255 -28 140 0 179 3 257 23 93 23 113 22 113
-4 0 -17 -15 -25 -110 -58 -190 -65 -404 -71 -613 -17 -88 22 -206 77 -221
101 -30 51 38 63 160 30z m-41 -166 c83 -31 191 -55 251 -55 46 0 68 -20 46
-42 -25 -25 -365 40 -385 73 -11 18 -3 49 11 49 6 0 40 -11 77 -25z m-28 -215
c41 -117 27 -241 -42 -387 -109 -232 -309 -398 -565 -470 -40 -11 -113 -16
-265 -18 -115 -2 -223 -5 -240 -7 -24 -2 -30 1 -30 16 0 26 65 43 211 55 133
12 214 31 310 76 254 117 495 434 544 715 15 86 17 92 37 88 11 -2 25 -27 40
-68z m-14 -587 c-4 -97 -84 -224 -193 -308 -176 -136 -426 -191 -675 -149 -65
11 -162 19 -235 19 -118 0 -125 1 -125 20 0 17 15 24 90 44 82 22 107 24 280
23 159 -1 203 2 275 18 183 44 380 172 501 326 64 80 85 82 82 7z m-127 -378
c15 -39 -93 -150 -191 -196 -109 -52 -175 -64 -340 -64 -150 0 -150 0 -272 42
-67 24 -145 46 -175 51 -44 6 -53 11 -53 27 0 18 7 20 80 19 44 0 121 -9 170
-19 126 -26 293 -24 413 3 94 21 228 78 298 126 44 30 62 33 70 11z m-966
-234 c47 -11 122 -33 166 -49 111 -42 254 -58 369 -43 47 7 90 9 95 6 59 -36
-123 -108 -275 -108 -128 -1 -214 24 -330 94 -55 33 -112 63 -128 66 -31 6
-41 18 -33 38 7 19 33 19 136 -4z m-19 -145 c82 -52 105 -80 75 -92 -17 -7
-115 44 -165 85 -23 19 -32 33 -28 45 10 25 27 20 118 -38z"/>
<path d="M3557 2133 c-14 -13 -6 -51 58 -263 65 -216 73 -254 56 -264 -5 -3
-124 11 -265 30 -141 20 -263 34 -271 30 -25 -9 -29 -35 -9 -58 64 -71 566
-501 914 -781 109 -89 151 -117 170 -115 18 2 35 22 72 83 27 44 56 81 66 83
9 1 87 -44 172 -100 161 -107 296 -186 437 -257 870 -435 1863 -546 2778 -311
455 117 898 323 1278 595 66 47 125 85 132 85 8 0 39 -38 70 -85 48 -72 61
-85 83 -85 19 1 64 32 157 111 72 61 213 181 314 267 100 86 269 236 375 334
210 196 226 220 150 226 -23 2 -137 -11 -254 -27 -238 -35 -259 -36 -266 -18
-2 7 25 118 61 246 36 128 65 243 63 255 -7 46 -44 22 -223 -144 -98 -91 -228
-211 -289 -267 -61 -57 -116 -103 -122 -103 -6 0 -46 50 -88 110 -43 61 -84
110 -93 110 -9 0 -70 -53 -137 -118 -503 -488 -1121 -798 -1786 -897 -145 -22
-476 -30 -630 -16 -735 68 -1426 387 -2055 950 -49 44 -98 81 -107 81 -11 0
-43 -38 -88 -105 -39 -58 -76 -105 -83 -105 -12 0 -94 71 -419 362 -175 157
-204 178 -221 161z m368 -379 c121 -107 221 -204 223 -214 2 -12 -36 -76 -94
-161 -112 -164 -111 -128 -17 -333 67 -147 63 -178 -16 -119 -88 66 -555 462
-680 575 -53 48 -62 78 -24 78 10 -1 113 -14 228 -30 176 -24 212 -26 224 -15
12 11 7 36 -32 162 -73 237 -76 253 -44 253 7 0 111 -88 232 -196z m5851 172
c3 -8 -18 -96 -47 -196 -48 -166 -51 -182 -37 -197 15 -14 33 -14 210 11 106
15 208 29 225 32 86 16 34 -46 -247 -293 -260 -227 -445 -383 -458 -383 -28 0
-22 37 32 169 31 76 56 146 56 154 0 8 -45 78 -100 155 -55 76 -100 146 -100
154 0 11 254 251 405 381 34 30 53 34 61 13z m-5312 -269 c621 -552 1344 -878
2080 -937 738 -59 1490 173 2130 658 103 78 307 254 360 311 17 17 35 31 42
31 8 0 32 -28 56 -62 23 -35 97 -141 165 -236 68 -95 123 -179 123 -186 0 -12
-77 -82 -240 -220 -161 -137 -449 -323 -680 -440 -411 -208 -810 -332 -1261
-392 -170 -22 -579 -30 -766 -14 -463 38 -874 142 -1318 334 -261 112 -603
316 -840 500 -140 108 -265 219 -265 233 0 13 273 426 308 466 8 9 20 17 25
17 5 0 42 -28 81 -63z m4902 -611 c5 -13 -49 -157 -69 -183 -5 -7 -15 -13 -22
-13 -14 0 -65 73 -65 93 0 16 119 116 138 117 7 0 15 -6 18 -14z m-5151 -48
c36 -28 65 -58 65 -66 0 -27 -41 -82 -61 -82 -16 0 -30 20 -60 86 -60 127 -45
144 56 62z"/>
<path d="M4442 1438 c-15 -15 -16 -45 -2 -53 22 -14 7 -47 -60 -132 -71 -90
-82 -118 -43 -118 15 0 42 25 91 85 62 77 72 85 103 85 77 0 78 35 3 98 -59
49 -72 55 -92 35z"/>
<path d="M8872 1358 c-7 -7 -12 -16 -12 -22 0 -5 32 -74 70 -153 55 -111 75
-143 88 -141 13 3 17 13 15 46 -1 35 2 45 23 59 21 13 29 14 49 3 27 -14 55
-8 55 14 0 17 -237 206 -260 206 -9 0 -21 -5 -28 -12z"/>
<path d="M4564 1185 c-44 -64 -83 -121 -88 -129 -13 -19 0 -46 23 -46 12 0 26
11 35 28 8 15 23 36 35 46 18 16 25 17 46 8 32 -15 31 -24 -5 -77 -16 -24 -30
-51 -30 -60 0 -21 27 -30 44 -16 12 11 82 109 154 218 43 65 -2 89 -51 27 -30
-37 -61 -43 -80 -13 -7 11 -2 26 18 57 29 44 28 72 -4 72 -13 0 -43 -36 -97
-115z"/>
<path d="M8721 1241 c-6 -10 -8 -33 -5 -50 9 -41 -21 -55 -46 -21 -20 26 -50
22 -50 -8 0 -26 162 -256 183 -260 26 -5 32 26 13 60 -34 56 3 78 56 32 35
-29 72 -29 76 1 2 16 -15 33 -71 72 -40 28 -78 57 -84 65 -6 7 -15 38 -20 68
-9 59 -33 78 -52 41z"/>
<path d="M4817 1088 c-126 -207 -137 -233 -93 -233 24 0 179 247 174 279 -6
45 -35 28 -81 -46z"/>
<path d="M8527 1114 c-17 -17 -2 -53 64 -159 39 -63 77 -119 85 -125 16 -14
44 -6 44 13 0 21 -156 272 -172 275 -8 1 -17 0 -21 -4z"/>
<path d="M4891 958 c-40 -73 -70 -142 -69 -153 5 -31 34 -24 60 15 14 20 32
35 43 35 18 0 20 -6 17 -62 -3 -52 -1 -64 13 -69 27 -11 39 12 55 108 15 91
16 92 60 126 25 19 45 42 45 51 0 21 -31 26 -61 11 -35 -19 -55 -6 -52 32 3
27 -1 34 -18 36 -19 3 -33 -17 -93 -130z"/>
<path d="M8352 1015 c-37 -16 -50 -40 -34 -65 6 -10 38 -70 72 -134 66 -124
74 -130 130 -101 36 19 60 52 60 85 0 37 -62 160 -99 198 -36 36 -74 41 -129
17z m105 -77 c52 -57 70 -149 31 -156 -13 -3 -27 16 -54 71 -36 73 -40 107
-11 107 7 0 23 -10 34 -22z"/>
<path d="M5187 963 c-20 -19 -127 -260 -125 -278 5 -34 34 -29 57 10 32 55 56
45 56 -25 0 -45 3 -55 18 -58 34 -7 44 16 52 112 7 94 7 94 51 126 28 20 44
38 42 49 -3 16 -12 17 -78 9 -20 -2 -25 2 -30 27 -5 29 -28 44 -43 28z"/>
<path d="M8160 905 c-10 -13 -7 -43 19 -163 18 -81 36 -151 41 -156 16 -16 39
3 42 36 4 43 46 62 77 34 25 -23 55 -14 48 13 -8 34 -180 251 -198 251 -9 0
-22 -7 -29 -15z"/>
<path d="M5376 725 c-47 -69 -86 -133 -86 -141 0 -22 29 -28 49 -10 36 32 76
16 83 -34 2 -19 9 -25 28 -25 24 0 25 3 48 153 18 119 20 157 11 168 -26 32
-48 14 -133 -111z"/>
<path d="M7937 824 c-4 -4 -7 -15 -7 -25 0 -24 91 -271 106 -288 10 -11 20
-10 65 7 29 11 58 27 64 36 15 23 -7 52 -36 48 -76 -9 -68 -16 -113 108 -39
107 -58 135 -79 114z"/>
<path d="M5603 788 c-5 -7 -15 -65 -22 -128 -7 -63 -15 -132 -17 -152 -5 -33
-3 -39 20 -50 18 -8 30 -8 37 -1 24 24 159 268 155 280 -11 28 -44 13 -68 -29
-15 -28 -30 -43 -43 -43 -18 0 -20 7 -20 65 0 51 -3 65 -16 68 -9 1 -20 -3
-26 -10z"/>
<path d="M7764 746 c-8 -21 16 -309 26 -320 15 -15 38 2 42 31 5 42 49 55 82
24 27 -26 56 -22 55 6 0 10 -33 74 -72 143 -62 107 -77 125 -100 128 -17 2
-29 -2 -33 -12z"/>
<path d="M5835 721 c-17 -28 -87 -300 -80 -312 12 -19 46 -9 55 16 21 56 71
259 68 279 -3 22 -32 34 -43 17z"/>
<path d="M7554 701 c-44 -11 -54 -19 -54 -46 0 -31 59 -278 69 -288 16 -16 96
6 125 35 25 25 28 34 23 70 -3 23 -15 54 -26 69 -13 18 -21 43 -21 69 0 33 -6
48 -29 71 -31 30 -36 32 -87 20z"/>
<path d="M5953 688 c-6 -7 -22 -69 -37 -138 -14 -69 -29 -135 -32 -147 -4 -16
-1 -25 10 -29 21 -8 44 11 48 39 2 14 10 22 23 22 15 0 21 -9 26 -38 7 -45 21
-62 45 -53 15 6 16 16 10 77 -6 67 -5 73 18 94 47 44 46 134 -2 158 -43 22
-98 29 -109 15z"/>
<path d="M6191 624 c-39 -32 -61 -104 -61 -197 0 -62 3 -71 29 -98 75 -74 158
4 168 161 4 59 2 83 -11 108 -30 57 -76 67 -125 26z m77 -116 c4 -70 -18 -128
-48 -128 -33 0 -45 39 -32 106 14 66 27 86 56 82 18 -3 21 -11 24 -60z"/>
<path d="M7222 628 c-11 -15 -37 -302 -27 -318 12 -19 34 -10 50 20 19 37 68
42 85 10 12 -23 38 -27 46 -7 4 12 -73 245 -96 288 -12 22 -43 25 -58 7z"/>
<path d="M6526 589 c-19 -22 -26 -42 -26 -72 0 -36 6 -46 51 -88 33 -31 50
-53 47 -65 -5 -28 -39 -30 -58 -3 -22 28 -50 19 -50 -16 0 -35 42 -75 77 -75
41 0 71 25 83 69 13 50 4 94 -26 122 -31 29 -30 47 1 59 32 12 32 43 0 75 -33
34 -67 32 -99 -6z"/>
<path d="M6731 596 c-8 -9 -11 -63 -9 -167 l3 -154 66 -3 c51 -2 69 1 79 13
22 26 0 49 -51 55 -41 5 -44 7 -44 35 0 26 4 30 30 33 39 5 57 20 53 46 -2 16
-12 22 -38 26 -29 4 -35 9 -35 30 0 22 5 26 40 30 43 5 57 28 35 55 -16 20
-113 20 -129 1z"/>
<path d="M6934 599 c-12 -20 6 -293 21 -308 24 -24 46 -6 43 36 -4 53 25 52
55 -2 15 -26 30 -40 42 -40 19 0 20 6 17 138 -2 76 -7 149 -12 163 -14 35 -43
28 -50 -11 -6 -34 -37 -46 -47 -18 -15 44 -53 67 -69 42z"/>
</g>
</svg>
